<?xml version="1.0" encoding="utf-8"?>
<!-- Generator: Adobe Illustrator 24.0.1, SVG Export Plug-In . SVG Version: 6.00 Build 0)  -->
<svg version="1.1" id="Capa_1" xmlns="http://www.w3.org/2000/svg" xmlns:xlink="http://www.w3.org/1999/xlink" x="0px" y="0px"
	 viewBox="0 0 559.3 96.1" style="enable-background:new 0 0 559.3 96.1;" xml:space="preserve">
<style type="text/css">
	.st0{fill:#FFFFFF;}
	.st1{fill:#1D1D1B;}
	.st2{fill:#FCD607;}
	.st3{fill:none;stroke:#FCD607;stroke-width:0.108;}
	.st4{fill:#1DBBEE;}
	.st5{fill:#DA2425;}
	.st6{fill:#F9C289;}
	.st7{fill:#8B723C;}
	.st8{fill:#C79D71;}
	.st9{fill:#76160F;}
	.st10{fill:#BFA475;}
	.st11{fill:#E42625;}
	.st12{fill:none;stroke:#1D1D1B;stroke-width:0.488;}
	.st13{fill:none;}
	.st14{fill:#277935;}
	.st15{fill:#8BBE46;}
</style>
<path class="st0" d="M0.1,48.1C0.1,21.5,17.8,0,39.6,0c21.8,0,39.5,21.5,39.5,48.1c0,26.5-17.7,48.1-39.5,48.1
	C17.8,96.1,0.1,74.6,0.1,48.1"/>
<path class="st1" d="M39.6,93.2C19.1,93.2,2.4,73,2.4,48.1c0-25,16.6-45.2,37.2-45.2c20.5,0,37.2,20.2,37.2,45.2
	C76.8,73,60.2,93.2,39.6,93.2 M39.6,2C18.7,2,1.8,22.7,1.8,48.1c0,25.4,17,46,37.9,46c20.9,0,37.9-20.6,37.9-46
	C77.5,22.7,60.5,2,39.6,2"/>
<path class="st2" d="M39.1,28.6c-0.6,0.6-1.1,1.9-1.2,2.5c-0.1,0.4,0,1-0.2,1.5c0,0.1-0.1,0.2-0.1,0.2c0-0.3-0.1-0.7-0.2-1.2
	c-0.1-0.6,0.2-1.2,0.3-1.7c0.2-0.7-0.1-1.6-0.2-1.7l-1.8,3l0.9-3.4l0-0.1c0,0,0,0,0,0v0l0,0c-0.7,0.3-1.7,1.3-2,1.8
	c-0.2,0.4-0.4,0.9-0.7,1.3c0,0.1-0.1,0.1-0.2,0.2c0.1-0.3,0.1-0.7,0.2-1.1c0.1-0.6,0.6-1.1,0.9-1.4c0.5-0.6,0.5-1.6,0.5-1.7
	l-2.8,2.1l2.1-2.8l0,0h0h0l0,0c-0.8,0-2.1,0.6-2.6,0.9c-0.3,0.3-0.7,0.7-1.2,0.9c-0.1,0-0.2,0.1-0.2,0.1c0.2-0.2,0.4-0.6,0.7-1
	c0.3-0.5,1-0.7,1.4-1c0.7-0.4,1.1-1.2,1.1-1.3L30.4,26l3-1.8l0.1,0h0l0,0h0c-0.8-0.3-2.2-0.3-2.7-0.1c-0.4,0.1-0.9,0.4-1.5,0.4
	c-0.1,0-0.2,0-0.3,0c0.3-0.2,0.6-0.4,1-0.6c0.5-0.3,1.2-0.3,1.6-0.4c0.8-0.1,1.5-0.7,1.5-0.8l-3.5-0.5l3.5-0.5
	c-0.6-0.6-1.9-1.1-2.5-1.2c-0.4,0-1,0-1.5-0.2c-0.1,0-0.2-0.1-0.2-0.1c0.3,0,0.7-0.1,1.1-0.2c0.6-0.1,1.2,0.2,1.7,0.3
	c0.7,0.2,1.6-0.1,1.7-0.2l-3-1.8l3.3,0.9l0.1,0c0,0,0,0,0,0h0l0,0c-0.3-0.7-1.3-1.7-1.8-2c-0.4-0.2-0.9-0.4-1.3-0.7
	c-0.1,0-0.1-0.1-0.2-0.2c0.3,0.1,0.7,0.1,1.1,0.2c0.6,0.1,1,0.6,1.4,0.9c0.6,0.5,1.6,0.5,1.7,0.5l-2.1-2.8l2.8,2.1l0,0v0l0,0
	c0-0.8-0.6-2.1-0.9-2.6c-0.3-0.3-0.7-0.7-1-1.2c0-0.1-0.1-0.2-0.1-0.2c0.3,0.2,0.6,0.4,1,0.7c0.5,0.3,0.7,1,1,1.4
	c0.4,0.7,1.2,1.1,1.3,1.1L35.8,13l1.8,3l0,0.1v0l0,0l0,0c0.3-0.8,0.3-2.2,0.1-2.7c-0.1-0.4-0.4-0.9-0.4-1.4c0-0.1,0-0.2,0-0.3
	c0.2,0.3,0.4,0.6,0.6,1c0.3,0.5,0.3,1.2,0.4,1.7c0.1,0.8,0.7,1.5,0.8,1.5l0.5-3.5l0.5,3.5c0.1-0.1,0.7-0.8,0.8-1.5
	c0.1-0.5,0.1-1.2,0.4-1.7c0.3-0.4,0.5-0.7,0.6-1c0,0.1,0,0.2,0,0.3c-0.1,0.5-0.3,1-0.4,1.4c-0.1,0.5-0.1,2,0.1,2.7l0,0l0,0v0l0-0.1
	l1.8-3l-0.9,3.4c0.1,0,1-0.4,1.3-1.1c0.2-0.4,0.5-1.1,1-1.4c0.4-0.3,0.7-0.5,1-0.7c0,0.1-0.1,0.2-0.1,0.2c-0.3,0.5-0.7,0.8-1,1.2
	c-0.3,0.5-0.9,1.8-0.9,2.6v0v0l0,0l2.8-2.1l-2.1,2.8c0.1,0,1,0,1.7-0.5c0.4-0.3,0.9-0.8,1.4-0.9c0.5-0.1,0.8-0.2,1.1-0.2
	c-0.1,0.1-0.1,0.1-0.2,0.2c-0.4,0.3-1,0.5-1.3,0.7c-0.5,0.3-1.5,1.3-1.8,2l0,0l0,0v0l0,0l3.3-0.9l-3,1.8c0.1,0,1,0.4,1.7,0.2
	c0.5-0.1,1.1-0.4,1.7-0.3c0.5,0.1,0.8,0.2,1.1,0.2c-0.1,0-0.2,0.1-0.2,0.1c-0.5,0.1-1.1,0.1-1.5,0.2c-0.6,0.1-1.9,0.6-2.5,1.2
	l3.5,0.5L46,22.6c0.1,0.1,0.8,0.7,1.5,0.8c0.5,0.1,1.2,0.1,1.6,0.4c0.4,0.3,0.7,0.5,1,0.6c-0.1,0-0.2,0-0.3,0
	c-0.5-0.1-1-0.3-1.4-0.4c-0.5-0.1-2-0.1-2.7,0.1h0v0h0l0.1,0l3,1.8l-3.4-0.9c0,0.1,0.4,1,1.1,1.3c0.4,0.2,1.1,0.5,1.4,1
	c0.3,0.4,0.5,0.7,0.7,1c-0.1,0-0.2-0.1-0.2-0.1c-0.5-0.3-0.8-0.7-1.2-0.9c-0.5-0.4-1.8-0.9-2.6-0.9l0,0h0h0l0,0l2.1,2.8l-2.8-2.1
	c0,0.1,0,1.1,0.5,1.7c0.3,0.4,0.8,0.9,0.9,1.4c0.1,0.5,0.1,0.8,0.2,1.1c-0.1-0.1-0.1-0.1-0.2-0.2c-0.3-0.4-0.5-1-0.7-1.3
	c-0.3-0.5-1.3-1.5-2-1.8l0,0v0c0,0,0,0,0,0l0,0.1l0.9,3.4l-1.8-3c0,0.1-0.4,1-0.2,1.7c0.1,0.5,0.4,1.1,0.3,1.7
	c-0.1,0.5-0.2,0.8-0.2,1.2c0-0.1-0.1-0.2-0.1-0.2c-0.1-0.5-0.1-1.1-0.2-1.5c-0.1-0.6-0.6-1.9-1.2-2.5H39.1z"/>
<path class="st3" d="M39.1,28.6c-0.6,0.6-1.1,1.9-1.2,2.5c-0.1,0.4,0,1-0.2,1.5c0,0.1-0.1,0.2-0.1,0.2c0-0.3-0.1-0.7-0.2-1.2
	c-0.1-0.6,0.2-1.2,0.3-1.7c0.2-0.7-0.1-1.6-0.2-1.7l-1.8,3l0.9-3.4l0-0.1c0,0,0,0,0,0v0l0,0c-0.7,0.3-1.7,1.3-2,1.8
	c-0.2,0.4-0.4,0.9-0.7,1.3c0,0.1-0.1,0.1-0.2,0.2c0.1-0.3,0.1-0.7,0.2-1.1c0.1-0.6,0.6-1.1,0.9-1.4c0.5-0.6,0.5-1.6,0.5-1.7
	l-2.8,2.1l2.1-2.8l0,0h0h0l0,0c-0.8,0-2.1,0.6-2.6,0.9c-0.3,0.3-0.7,0.7-1.2,0.9c-0.1,0-0.2,0.1-0.2,0.1c0.2-0.2,0.4-0.6,0.7-1
	c0.3-0.5,1-0.7,1.4-1c0.7-0.4,1.1-1.2,1.1-1.3L30.4,26l3-1.8l0.1,0h0l0,0h0c-0.8-0.3-2.2-0.3-2.7-0.1c-0.4,0.1-0.9,0.4-1.5,0.4
	c-0.1,0-0.2,0-0.3,0c0.3-0.2,0.6-0.4,1-0.6c0.5-0.3,1.2-0.3,1.6-0.4c0.8-0.1,1.5-0.7,1.5-0.8l-3.5-0.5l3.5-0.5
	c-0.6-0.6-1.9-1.1-2.5-1.2c-0.4,0-1,0-1.5-0.2c-0.1,0-0.2-0.1-0.2-0.1c0.3,0,0.7-0.1,1.1-0.2c0.6-0.1,1.2,0.2,1.7,0.3
	c0.7,0.2,1.6-0.1,1.7-0.2l-3-1.8l3.3,0.9l0.1,0c0,0,0,0,0,0h0l0,0c-0.3-0.7-1.3-1.7-1.8-2c-0.4-0.2-0.9-0.4-1.3-0.7
	c-0.1,0-0.1-0.1-0.2-0.2c0.3,0.1,0.7,0.1,1.1,0.2c0.6,0.1,1,0.6,1.4,0.9c0.6,0.5,1.6,0.5,1.7,0.5l-2.1-2.8l2.8,2.1l0,0v0l0,0
	c0-0.8-0.6-2.1-0.9-2.6c-0.3-0.3-0.7-0.7-1-1.2c0-0.1-0.1-0.2-0.1-0.2c0.3,0.2,0.6,0.4,1,0.7c0.5,0.3,0.7,1,1,1.4
	c0.4,0.7,1.2,1.1,1.3,1.1L35.8,13l1.8,3l0,0.1v0l0,0l0,0c0.3-0.8,0.3-2.2,0.1-2.7c-0.1-0.4-0.4-0.9-0.4-1.4c0-0.1,0-0.2,0-0.3
	c0.2,0.3,0.4,0.6,0.6,1c0.3,0.5,0.3,1.2,0.4,1.7c0.1,0.8,0.7,1.5,0.8,1.5l0.5-3.5l0.5,3.5c0.1-0.1,0.7-0.8,0.8-1.5
	c0.1-0.5,0.1-1.2,0.4-1.7c0.3-0.4,0.5-0.7,0.6-1c0,0.1,0,0.2,0,0.3c-0.1,0.5-0.3,1-0.4,1.4c-0.1,0.5-0.1,2,0.1,2.7l0,0l0,0v0l0-0.1
	l1.8-3l-0.9,3.4c0.1,0,1-0.4,1.3-1.1c0.2-0.4,0.5-1.1,1-1.4c0.4-0.3,0.7-0.5,1-0.7c0,0.1-0.1,0.2-0.1,0.2c-0.3,0.5-0.7,0.8-1,1.2
	c-0.3,0.5-0.9,1.8-0.9,2.6v0v0l0,0l2.8-2.1l-2.1,2.8c0.1,0,1,0,1.7-0.5c0.4-0.3,0.9-0.8,1.4-0.9c0.5-0.1,0.8-0.2,1.1-0.2
	c-0.1,0.1-0.1,0.1-0.2,0.2c-0.4,0.3-1,0.5-1.3,0.7c-0.5,0.3-1.5,1.3-1.8,2l0,0l0,0v0l0,0l3.3-0.9l-3,1.8c0.1,0,1,0.4,1.7,0.2
	c0.5-0.1,1.1-0.4,1.7-0.3c0.5,0.1,0.8,0.2,1.1,0.2c-0.1,0-0.2,0.1-0.2,0.1c-0.5,0.1-1.1,0.1-1.5,0.2c-0.6,0.1-1.9,0.6-2.5,1.2
	l3.5,0.5L46,22.6c0.1,0.1,0.8,0.7,1.5,0.8c0.5,0.1,1.2,0.1,1.6,0.4c0.4,0.3,0.7,0.5,1,0.6c-0.1,0-0.2,0-0.3,0
	c-0.5-0.1-1-0.3-1.4-0.4c-0.5-0.1-2-0.1-2.7,0.1h0v0h0l0.1,0l3,1.8l-3.4-0.9c0,0.1,0.4,1,1.1,1.3c0.4,0.2,1.1,0.5,1.4,1
	c0.3,0.4,0.5,0.7,0.7,1c-0.1,0-0.2-0.1-0.2-0.1c-0.5-0.3-0.8-0.7-1.2-0.9c-0.5-0.4-1.8-0.9-2.6-0.9l0,0h0h0l0,0l2.1,2.8l-2.8-2.1
	c0,0.1,0,1.1,0.5,1.7c0.3,0.4,0.8,0.9,0.9,1.4c0.1,0.5,0.1,0.8,0.2,1.1c-0.1-0.1-0.1-0.1-0.2-0.2c-0.3-0.4-0.5-1-0.7-1.3
	c-0.3-0.5-1.3-1.5-2-1.8l0,0v0c0,0,0,0,0,0l0,0.1l0.9,3.4l-1.8-3c0,0.1-0.4,1-0.2,1.7c0.1,0.5,0.4,1.1,0.3,1.7
	c-0.1,0.5-0.2,0.8-0.2,1.2c0-0.1-0.1-0.2-0.1-0.2c-0.1-0.5-0.1-1.1-0.2-1.5c-0.1-0.6-0.6-1.9-1.2-2.5H39.1z"/>
<path class="st1" d="M32.7,26.4c0.7-0.4,1.1-1.2,1.1-1.3L30.4,26l3-1.8l0.1,0h0l0,0h0c-0.8-0.3-2.2-0.3-2.7-0.1
	c-0.4,0.1-0.9,0.4-1.5,0.4c-0.1,0-0.2,0-0.3,0c0.3-0.2,0.6-0.4,1-0.6c0.5-0.3,1.2-0.3,1.6-0.4c0.8-0.1,1.5-0.7,1.5-0.8l-3.5-0.5
	l3.5-0.5c-0.6-0.6-1.9-1.1-2.5-1.2c-0.4,0-1,0-1.5-0.2c-0.1,0-0.2-0.1-0.2-0.1c0.3,0,0.7-0.1,1.1-0.2c0.6-0.1,1.2,0.2,1.7,0.3
	c0.7,0.2,1.6-0.1,1.7-0.2l-3-1.8l3.3,0.9l0.1,0c0,0,0,0,0,0h0l0,0c-0.3-0.7-1.3-1.7-1.8-2c-0.4-0.2-0.9-0.4-1.3-0.7
	c-0.1,0-0.1-0.1-0.2-0.2c0.3,0.1,0.7,0.1,1.1,0.2c0.6,0.1,1,0.6,1.4,0.9c0.6,0.5,1.6,0.5,1.7,0.5l-2.1-2.8l2.8,2.1l0,0v0l0,0
	c0-0.8-0.6-2.1-0.9-2.6c-0.3-0.3-0.7-0.7-1-1.2c0-0.1-0.1-0.2-0.1-0.2c0.3,0.2,0.6,0.4,1,0.7c0.5,0.3,0.7,1,1,1.4
	c0.4,0.7,1.2,1.1,1.3,1.1L35.8,13l1.8,3l0,0.1v0l0,0l0,0c0.3-0.8,0.3-2.2,0.1-2.7c-0.1-0.4-0.4-0.9-0.4-1.4c0-0.1,0-0.2,0-0.3
	c0.2,0.3,0.4,0.6,0.6,1c0.3,0.5,0.3,1.2,0.4,1.7c0.1,0.8,0.7,1.5,0.8,1.5l0.5-3.5l0.5,3.5c0.1-0.1,0.7-0.8,0.8-1.5
	c0.1-0.5,0.1-1.2,0.4-1.7c0.3-0.4,0.5-0.7,0.6-1c0,0.1,0,0.2,0,0.3c-0.1,0.5-0.3,1-0.4,1.4c-0.1,0.5-0.1,2,0.1,2.7l0,0l0,0v0l0-0.1
	l1.8-3l-0.9,3.4c0.1,0,1-0.4,1.3-1.1c0.2-0.4,0.5-1.1,1-1.4c0.4-0.3,0.7-0.5,1-0.7c0,0.1-0.1,0.2-0.1,0.2c-0.3,0.5-0.7,0.8-1,1.2
	c-0.3,0.4-0.9,1.8-0.9,2.6v0v0l0,0l2.8-2.1l-2.1,2.8c0.1,0,1,0,1.7-0.5c0.4-0.3,0.9-0.8,1.4-0.9c0.5-0.1,0.8-0.2,1.1-0.2
	c-0.1,0.1-0.1,0.1-0.2,0.2c-0.4,0.3-1,0.5-1.3,0.7c-0.5,0.3-1.5,1.3-1.8,2l0,0l0,0v0l0,0l3.3-0.9l-3,1.8c0.1,0,1,0.4,1.7,0.2
	c0.5-0.1,1.1-0.4,1.7-0.3c0.5,0.1,0.8,0.2,1.1,0.2c-0.1,0-0.2,0.1-0.2,0.1c-0.5,0.1-1.1,0.1-1.5,0.2c-0.6,0.1-1.9,0.6-2.5,1.2
	l3.5,0.5L46,22.6c0.1,0.1,0.8,0.7,1.5,0.8c0.5,0.1,1.2,0.1,1.6,0.4c0.4,0.3,0.7,0.5,1,0.6c-0.1,0-0.2,0-0.3,0
	c-0.5-0.1-1-0.3-1.4-0.4c-0.5-0.1-2-0.1-2.7,0.1h0v0h0l0.1,0l3,1.8l-3.4-0.9c0,0.1,0.4,1,1.1,1.3c0.4,0.2,1.1,0.5,1.4,1l0.2-0.2
	c-0.3-0.5-1-0.7-1.4-1c-0.3-0.2-0.5-0.4-0.6-0.6l3.7,1l1.1,0.3v0l-1-0.6l-3.3-1.9c0.6-0.1,1.5-0.1,1.9,0.1c0.4,0.1,0.9,0.4,1.4,0.4
	c0.2,0,0.6,0,0.9-0.1c0.4-0.1,0.7-0.3,0.7-0.3c-0.3,0-0.6,0-0.8-0.1c-0.5-0.1-0.8-0.4-1.5-0.8c-0.5-0.3-1.2-0.3-1.7-0.4
	c-0.4-0.1-0.6-0.2-0.8-0.3l3.8-0.5l1.1-0.2L50.6,22l-3.7-0.5c0.6-0.3,1.3-0.6,1.8-0.7c0.4,0,1,0,1.5-0.2c0.2-0.1,0.5-0.2,0.7-0.4
	c0.3-0.3,0.6-0.5,0.6-0.5c-0.3,0.1-0.5,0.2-0.8,0.2c-0.5,0.1-0.9-0.1-1.7-0.2c-0.6-0.1-1.2,0.2-1.7,0.3c-0.4,0.1-0.6,0.1-0.9,0
	l3.3-1.9l1-0.6l-1.1,0.3l-3.7,1c0.4-0.5,1-1.1,1.4-1.3c0.4-0.2,0.9-0.4,1.3-0.7c0.2-0.1,0.4-0.4,0.5-0.7c0.2-0.3,0.3-0.7,0.3-0.7
	c-0.2,0.2-0.4,0.4-0.6,0.5c-0.4,0.2-0.9,0.3-1.6,0.4c-0.6,0.1-1,0.6-1.4,0.9c-0.3,0.2-0.6,0.3-0.8,0.4l2.3-3.1l0.7-0.9v0l-0.9,0.7
	l-3,2.3c0.2-0.6,0.5-1.4,0.8-1.8c0.3-0.3,0.7-0.7,0.9-1.2c0.1-0.2,0.2-0.5,0.2-0.8c0-0.4,0-0.8,0-0.8c-0.1,0.3-0.2,0.5-0.4,0.7
	c-0.3,0.4-0.7,0.6-1.3,1c-0.5,0.3-0.7,1-1,1.4c-0.2,0.3-0.4,0.5-0.6,0.6l1-3.7l0.3-1.1l-0.6,1l-1.9,3.3c-0.1-0.7-0.1-1.5,0.1-1.9
	c0.1-0.4,0.4-0.9,0.4-1.5c0-0.2,0-0.6-0.1-0.8c-0.1-0.4-0.3-0.7-0.3-0.7c0,0.3,0,0.6-0.1,0.8c-0.1,0.5-0.4,0.8-0.8,1.5
	c-0.3,0.5-0.3,1.2-0.4,1.6c0,0.4-0.2,0.6-0.3,0.8v0l-0.5-3.8L39.6,10l-0.2,1.1l-0.5,3.8c-0.1-0.2-0.2-0.4-0.3-0.8
	c-0.1-0.5-0.1-1.2-0.4-1.6c-0.4-0.6-0.7-1-0.8-1.5c-0.1-0.2-0.1-0.5-0.1-0.8c0,0-0.1,0.3-0.3,0.7c-0.1,0.3-0.1,0.6-0.1,0.8
	c0.1,0.5,0.3,1,0.4,1.5c0.1,0.5,0.2,1.3,0.1,1.9l-1.9-3.3l-0.6-1l0.3,1.1l1,3.7c-0.2-0.1-0.4-0.3-0.6-0.6c-0.2-0.4-0.5-1.1-1-1.4
	c-0.6-0.4-1-0.6-1.3-1c-0.1-0.2-0.3-0.4-0.4-0.7c0,0,0,0.4,0,0.8c0,0.3,0.1,0.6,0.2,0.8c0.3,0.5,0.7,0.8,0.9,1.2
	c0.3,0.4,0.6,1.1,0.8,1.8l-3-2.3L31,13.5l0,0l0.7,0.9l2.3,3.1c-0.2,0-0.5-0.1-0.8-0.4c-0.4-0.3-0.9-0.8-1.4-0.9
	c-0.7-0.1-1.2-0.2-1.6-0.4c-0.2-0.1-0.4-0.3-0.6-0.5c0,0,0.1,0.3,0.3,0.7c0.1,0.3,0.3,0.5,0.5,0.7c0.4,0.3,1,0.5,1.3,0.7
	c0.4,0.2,1,0.8,1.4,1.3l-3.7-1l-1.1-0.3l1,0.6l3.3,1.9c-0.2,0-0.5,0.1-0.9,0c-0.5-0.1-1.1-0.4-1.7-0.3c-0.7,0.2-1.2,0.3-1.7,0.2
	c-0.2,0-0.5-0.1-0.8-0.2c0,0,0.3,0.3,0.6,0.5c0.2,0.2,0.5,0.4,0.7,0.4c0.5,0.1,1.1,0.1,1.5,0.2c0.5,0.1,1.2,0.3,1.8,0.7L28.5,22
	l-1.1,0.2l1.1,0.2l3.8,0.5c-0.2,0.1-0.4,0.3-0.8,0.3c-0.5,0.1-1.2,0-1.6,0.4c-0.6,0.4-1,0.7-1.5,0.8c-0.2,0.1-0.5,0.1-0.8,0.1
	c0,0,0.3,0.1,0.7,0.3c0.3,0.1,0.6,0.1,0.8,0.1c0.5-0.1,1-0.3,1.4-0.4c0.5-0.1,1.3-0.2,1.9-0.1l-3.3,1.9l-1,0.6l0,0l1.1-0.3l3.7-1
	c-0.1,0.2-0.3,0.4-0.6,0.6L32.7,26.4z"/>
<path class="st1" d="M40.3,20.1l0.1-0.8c0,0,1.8-0.1,2.1,0c0.4,0.1,1.1,0.6,1.4,1.1c0.1,0.3-0.6-0.3-1.1-0.5
	C42.2,19.7,40.8,19.9,40.3,20.1"/>
<path class="st1" d="M42.6,20.6c-0.3-0.1-1.3-0.1-1.5,0c-0.2,0.1-0.7,0.7-0.7,0.8c0,0.1,0.3,0.2,0.4,0c0.1-0.1,0.3-0.2,0.5-0.3
	c0,0.1,0,0.1,0,0.2c0,0.4,0.3,0.7,0.7,0.7c0.4,0,0.7-0.3,0.7-0.7c0-0.1,0-0.1,0-0.2c0.2,0.1,0.5,0.2,0.6,0.3
	c0.2,0.2,0.5,0.3,0.5,0.2C43.5,21.3,42.8,20.8,42.6,20.6"/>
<path class="st1" d="M38.7,20.1l-0.1-0.8c0,0-1.8-0.1-2.1,0c-0.4,0.1-1.1,0.6-1.4,1.1c-0.1,0.3,0.6-0.3,1.1-0.5
	C36.8,19.7,38.2,19.9,38.7,20.1"/>
<path class="st1" d="M36.4,20.6c0.3-0.1,1.3-0.1,1.5-0.1c0.2,0.1,0.7,0.8,0.7,0.8c0,0.1-0.2,0.2-0.4,0c-0.1-0.1-0.3-0.2-0.5-0.3
	c0,0.1,0,0.1,0,0.2c0,0.4-0.3,0.7-0.7,0.7c-0.4,0-0.7-0.3-0.7-0.7c0-0.1,0-0.1,0-0.2c-0.2,0.1-0.5,0.2-0.6,0.3
	c-0.2,0.2-0.5,0.3-0.5,0.2C35.5,21.3,36.2,20.7,36.4,20.6"/>
<path class="st0" d="M21.2,48.1c0,13.6,8.2,24.6,18.4,24.6c10.2,0,18.4-11,18.4-24.6v-0.3H21.2V48.1z"/>
<path class="st4" d="M39.7,23.4c-10.2,0-18.4,11-18.4,24.3h36.8C58,34.4,49.8,23.4,39.7,23.4"/>
<path class="st5" d="M44.7,41.7c0,0-0.1-3.1-0.3-3.8c-0.2-0.9,0.2-3.5,0.1-4c-0.2-0.8-1.1-3.8-4.1-3.9c-3.2-0.1-3.7,1.6-3.7,2.1
	c0,0.6,1.7,1.3,2.2,1.2c0,0-4.6,1.5-5.4,6.7c-0.3,1.2,4.2,2.3,5.1,2.4C39.3,42.6,44.8,43.4,44.7,41.7"/>
<path class="st6" d="M21.5,52.8c0,0,8.7-0.7,9.9-1.1c0.8-0.2,3-1,3.7-1.3c0.7-0.2,2.9-0.3,3.2-0.3c0.3,0,0.6,0.5,0.6,0.5l1.3-1.2
	c0,0,1.6,0,2,0c0.5,0,3.2,1.6,4,1.8c0,0,3.9,0.7,4.6,0.9c0.7,0.3,6.4,1.5,6.6,1.5c0,0-1.7,6.1-1.9,6.4c-0.2,0.3-9.5-4.3-9.7-4.6
	c-0.3-0.3-0.2,1.2-1.4,1.2c0,0-0.9,1-1.8,0.7c0,0-0.8,0.8-1.5,0.8c0,0,0.2,0.8-2.1,0.3c-0.2,0-1.6,1.6-2.6-0.1c0,0-1.4,0.8-1.8-0.5
	c0,0-1,0.7-1.2-1c0,0-1,0.3-1.5-0.7c0,0-7.6,2.4-8.9,3.2C23.2,59.3,22,56.1,21.5,52.8"/>
<path class="st7" d="M32.7,58.3c-0.9-0.4-5.3,0.4-7.9,4.7c0.4,0.7,0.8,1.3,1.2,1.9c0.6-0.9,1.4-2.1,1.9-3.2
	C29.4,58.6,33,58.5,32.7,58.3"/>
<path class="st7" d="M31.1,68.7c-0.9-3.3,1.7-5.7,1.4-5.7c-0.7,0.2-2.7,2.4-3.1,5.7c0.6,0.6,1.3,1.1,2,1.5
	C31.3,69.7,31.2,69.2,31.1,68.7"/>
<path class="st7" d="M28.6,67.9c0.2-0.8,0.3-1.6,0.4-2.4c0.3-3.4,3.6-4.8,3.3-4.9c-0.8-0.1-4,1.7-5.4,5.5
	C27.4,66.7,28,67.3,28.6,67.9"/>
<path class="st7" d="M46.7,61.2c-0.3,0.1,3,1.5,3.3,4.9c0.1,0.7,0.2,1.4,0.3,2c0.6-0.5,1.1-1.1,1.6-1.8
	C50.5,62.8,47.5,61.1,46.7,61.2"/>
<path class="st7" d="M34.3,71.1c-2-2.8-0.3-6-0.6-5.9c-0.6,0.4-1.5,2.7-1.1,5.7c0.7,0.4,1.5,0.7,2.2,1
	C34.6,71.6,34.5,71.4,34.3,71.1"/>
<path class="st7" d="M46.4,63.6c-0.3,0,2.3,2.4,1.4,5.7c-0.1,0.3-0.1,0.6-0.2,0.9c0.6-0.4,1.2-0.8,1.8-1.3
	C48.9,65.8,47.1,63.8,46.4,63.6"/>
<path class="st7" d="M45.3,65.9c-0.3-0.1,1.4,3.1-0.6,5.9c0,0,0,0,0,0c0.6-0.2,1.2-0.5,1.8-0.8C46.7,68.3,45.8,66.2,45.3,65.9"/>
<path class="st8" d="M46.7,54c-0.5-0.2-0.4-0.2-0.7-0.7c-0.3,0.6-0.6,0.5-0.6,0.5c0,0-2.7-1.1-3.1-3.4c0,0-0.6,1.8-1.5-0.2
	c0,0-1.1,2.1-2.2,1.9c-1.1-0.2-1.3,0-1.3,0l0.6,0.3l-0.6,0.1c0,0,1,1.3,2.4,1c1.3-0.2,1.4-0.6,1.6-0.7c0.1-0.1,2.7,1.9,2.7,2.1
	c0,0.1-0.3,0.3-0.7,0.3c-0.8-0.3-2-1.1-2-1.1l3.1,2.6l1.3-0.7l0.1-0.6c1.6,0.9,6.5,3.8,9.3,4.7c0,0,0.6-0.6,1.4-3
	C56.6,57.1,51.6,56.6,46.7,54"/>
<path class="st8" d="M40.2,54.9c0,0,1.8,1.5,2.3,1.5c0.6,0,0.7-0.8,0.5-0.9c-0.2-0.2,1,1.3,1,1.3l-0.9,0.5L42.2,57L40.2,54.9z"/>
<path class="st8" d="M39.4,56.2l1.6,1.6c0,0,0.3,0.5,1.2,0.1c0.8-0.4,0.4-0.8,0.3-0.8c-0.2,0-0.4-0.5-0.4-0.5s-0.7,0.8-1.2,0.5
	C40.4,56.9,39.4,56.2,39.4,56.2"/>
<path class="st8" d="M22.3,56.2c0,0,9.6-1.6,11.1-1.9c0.7-0.1,2.3,0.2,3.8,0.9c1.5,0.7,2.1,0.9,2.1,0.9l2.2,1.6l-0.4,0.7
	c0,0-0.9,0.1-1.5,0.1c-0.6,0-1.4,0.6-2.1,0.6c-0.7,0-0.9-0.7-0.9-0.7s-1.1,0.8-1.8-0.5c0,0-1.2,0.5-1.2-1c0,0-1.4,0.4-1.4-0.8
	c0,0-7.9,2.6-8.9,3.3C23.2,59.3,22.3,56.9,22.3,56.2"/>
<path class="st6" d="M38.1,56.6c0,0-0.6,0.6-1,0.6c-0.4,0-1-0.2-0.6-0.7c0.3-0.4,1.1-0.5,1.3-0.3C38.1,56.4,38.1,56.2,38.1,56.6"/>
<path class="st6" d="M36.4,55.8c0,0-0.6,0.6-1,0.6c-0.3,0-1-0.2-0.6-0.7c0.3-0.3,1.1-0.5,1.3-0.3C36.3,55.6,36.4,55.4,36.4,55.8"/>
<path class="st9" d="M44.6,42c-0.1,0.7-2.7,1-5.8,0.5c-3.1-0.5-5.5-1.5-5.4-2.2c0.1-0.8,2.7-1,5.8-0.5C42.3,40.3,44.7,41.3,44.6,42"
	/>
<polygon class="st7" points="40.3,40.2 38.8,39.9 38.8,50.1 40.3,49.4 "/>
<polygon class="st10" points="39.2,49.7 39.7,49.7 39.7,41.4 39.2,41.3 "/>
<polygon class="st7" points="43.4,62.6 40.9,62.6 40.9,60.1 38.3,60.1 38.3,62.6 35.8,62.6 35.8,65.1 38.3,65.1 38.3,72 40.9,72 
	40.9,65.1 43.4,65.1 "/>
<rect x="38.3" y="60.3" class="st10" width="2.5" height="0.2"/>
<polygon class="st10" points="40.6,62.8 40.8,63 43.1,63 43.1,62.8 "/>
<rect x="35.9" y="62.8" class="st10" width="2.8" height="0.2"/>
<rect x="38.6" y="60.4" class="st10" width="0.2" height="2.7"/>
<polygon class="st10" points="38.6,69.8 38.8,69.8 38.8,65.1 38.6,64.9 "/>
<path class="st11" d="M41.4,35.5c-0.1,0-0.3,0-0.4,0C41,35.5,41.2,35.5,41.4,35.5"/>
<path class="st1" d="M41.4,35.5c-0.1,0-0.3,0-0.4,0C41,35.5,41.2,35.5,41.4,35.5"/>
<path class="st1" d="M40.3,42.9c2.6,0.2,4.5,0,4.6-0.7c0.6-3.5-0.2-4.1-0.2-4.1c0.5-1.5,0-2.5,0-2.5c0.5-2.2-0.8-5.1-3.9-5.7
	c-3-0.5-4.4,1.3-4.5,2c-0.2,1.4,1,1.6,1.7,1.6c-4.6,1.9-5,6.4-5.1,6.8c-0.1,0.8,2.4,1.9,5.7,2.5l0.1-0.3c-2.9-0.5-5.2-1.4-5.1-2
	c0.1-0.7,2.6-0.8,5.5-0.3c2.9,0.5,5.2,1.4,5.1,2c-0.1,0.5-1.8,0.7-4,0.5L40.3,42.9z M33.8,39.6c0,0,0.9-5.3,6.3-6.2
	c0,0-3.1-0.3-3.2-1.2c-0.1-1,1.7-2.2,3.8-1.8c1.1,0.2,3.7,1.6,3.3,4.1c-0.1,0.7-1.8,1-2.6,1.1c1.4-0.1,2.5,0.1,2.4,0.6
	c-0.1,0.7-1.4,1.2-2.8,1c1.9,1,2-0.4,2.9,0.9c0.3,0.5,0.1,0.6-2,0c-3.2-1-4.1-0.5-4.1-0.5s3.3,0.1,5.8,2c0.5,0.4,0.6,1.5,0.3,1.6
	c-1-0.5-2.7-1.1-4.7-1.4C36.9,39.3,34.9,39.3,33.8,39.6"/>
<polygon class="st12" points="40.3,40.2 38.8,39.9 38.8,50.1 40.3,49.4 "/>
<path class="st1" d="M55.8,59.7c0,0-8.3-3.3-9.6-4.4c-0.2-0.2-0.5-0.4-0.8-0.6c-1.2-1.2-3.5-2.8-3.6-2.7c-0.3-0.3-0.6-0.8-0.9-1.3
	c0.3,1.3-0.7,1.1-1.3,1.8c-0.5,0.5-1.5,0-1.7-0.2c-0.2-0.2,0.9-0.9,1.9-2.1c0.2-0.3,0.3-0.7,1.4-0.5c1.1,0.2,1.6,0.1,2,0.4
	c0.4,0.3,2.9,1.6,3.4,1.6c0.5,0,2.7,0.2,4,0.7c1,0.4,6.6,1.7,6.8,1.7C57.7,54,56.4,58.2,55.8,59.7 M44.7,56.3
	c-0.3,0-3.4-2.3-3.4-2.3c0.1,0.1,0.6,0.6,0.6,0.6c0.8,0.8,1.8,1.7,1.9,1.9c0.1,0.3-0.6,0.5-0.9,0.5c-0.3,0-2.3-1.7-2.3-1.7
	c0.4,0.6,1.9,1.8,1.7,2.2c-0.1,0.3-0.5,0.3-0.8,0.3c-0.3,0-1.7-1.1-1.7-1.1c0.6,0.8,0.8,1,0.8,1.3c0.1,0.3-0.6,0.2-0.9,0.2
	c0,0-0.1,0-0.2-0.1c0.2-0.3,0.2-0.4,0.2-0.6c0-0.3-0.3-0.8-1.3-0.8c0,0,0.3-1.4-1.6-1c-0.5-0.7-0.9-1-2.3-0.4
	c-0.3-0.6-1.1-0.8-1.8-0.3c-0.3,0.2-0.5,0.5-0.6,0.7C30,56.2,23,58.9,23,58.9c-0.7-1.3-1.5-5.8-1.5-5.8c4.2-0.3,9.7-1,10.4-1.2
	c0.7-0.2,2.7-1.1,3.4-1.3c0.8-0.3,2.1-0.2,2.8-0.2c0,0,0.2,0.1,0.4,0.3c-0.7,0.7-1.4,1.4-1.4,1.7c0,0.2,0.4,0.6,1.4,0.7
	c1.7,0.3,1.8-0.9,2.4-0.9c0.2,0.1,0.4,0.2,0.5,0.2c0,0,0.1,0.1,0.3,0.2c0,0,0.2,0.2,0.5,0.4c0.9,0.7,2.3,1.8,2.9,2.4
	C45.7,55.8,45,56.3,44.7,56.3 M37.5,59c-0.3,0-0.8-0.4-0.6-0.5c0.4-0.2,1.1-0.7,1.5-1.1c0.3,0,1.4,0.3,0.8,0.8
	C38.3,58.7,37.8,59,37.5,59 M35.4,58.3c-0.5-0.2-0.1-0.9,0.7-1.4c0.7-0.4,1.1-1.1,2-0.4c0.2,0.3-0.5,0.9-1,1.3
	C36.5,58.1,35.7,58.5,35.4,58.3 M34,57.6c-0.1-0.1-0.3-1,0.2-1.4c0.2-0.2,1.2-1.1,1.9-0.6c0.3,0.2-0.2,0.8-0.7,1.3
	C34.9,57.4,34.2,57.8,34,57.6 M32.6,56.6c-0.3-0.1-0.2-0.7,0.2-1.1c0.3-0.2,0.8-0.4,1-0.3c0.1,0.1,0.2,0.5-0.1,0.8
	C33.5,56.3,33.1,56.8,32.6,56.6 M57.6,53.5c-0.7,0-6.4-1.3-7.2-1.7c-1-0.5-3-0.4-3.8-0.6c-1.6-0.5-3.4-2-4-1.8
	c-0.7,0.1-2.5-0.4-2.8,0.1c-0.1,0.2-0.4,0.5-0.6,0.7c-0.2-0.2-0.5-0.3-1-0.3h-2.7c-0.6,0-3.1,1.4-3.9,1.6c-0.8,0.2-7.3,1-10.2,0.9
	c0,0,0.8,5.2,1.9,7.3c0,0,4.8-2.4,8.7-3.2c0,0.1,0.1,0.2,0.1,0.2c0.2,0.2,0.7,0.6,1.2,0.5c0,0.4,0.1,1.3,1.3,1.1
	c0,0.4,0.8,1.1,1.9,0.5c0.1,0.5,0.9,1.1,2.1,0.3c0.2-0.1,0.4-0.2,0.5-0.3c0,0,0,0,0.1,0c0.6,0.3,2.1,0.7,2.5-0.3c0,0,1,0.2,1.3-0.7
	c0,0,1.2,0.3,1.6-0.8c0,0,1.4,0.1,1.6-1.1c1.3,1.1,9.4,4.5,9.4,4.5c0.8-2.5,1.1-3.4,1.9-6.1C57.5,53.9,57.6,53.5,57.6,53.5"/>
<path class="st1" d="M32.6,60.4c-0.7-0.3-4.3,1.1-6,5.2c0.1,0.1,0.2,0.3,0.3,0.4c1.4-3.8,4.5-5.6,5.4-5.5c0.3,0.1-3,1.5-3.3,4.9
	c-0.1,0.8-0.2,1.6-0.4,2.4c0.1,0.1,0.2,0.2,0.3,0.3c0.2-0.7,0.3-1.4,0.3-2.2C29.5,61.6,33.1,60.7,32.6,60.4"/>
<path class="st1" d="M32.8,62.8c-0.7-0.1-3.1,2-3.7,5.6c0.1,0.1,0.2,0.2,0.4,0.3c0.4-3.3,2.4-5.5,3.1-5.7c0.3,0-2.4,2.4-1.4,5.7
	c0.1,0.5,0.2,1,0.3,1.5c0.1,0.1,0.3,0.2,0.4,0.3c-0.1-0.4-0.2-0.9-0.3-1.3C30.3,64.9,33.4,62.8,32.8,62.8"/>
<path class="st1" d="M33.8,64.9c-0.6,0.2-2,2.5-1.7,5.7c0.1,0.1,0.3,0.2,0.4,0.3c-0.5-2.9,0.5-5.3,1.1-5.7c0.3-0.1-1.4,3.1,0.6,5.9
	c0.2,0.3,0.4,0.5,0.5,0.8c0.2,0.1,0.4,0.1,0.5,0.2c-0.2-0.2-0.3-0.5-0.5-0.7C32.2,67.8,34.4,64.8,33.8,64.9"/>
<path class="st1" d="M50,66.1c-0.3-3.4-3.6-4.8-3.3-4.9c0.8-0.1,3.8,1.6,5.2,5.2c0.1-0.1,0.2-0.3,0.3-0.4c-1.7-3.9-5.2-5.2-5.9-4.9
	c-0.6,0.3,3.1,1.2,3.4,5.6c0,0.6,0.1,1.2,0.2,1.8c0.1-0.1,0.2-0.2,0.3-0.3C50.2,67.4,50.1,66.7,50,66.1"/>
<path class="st1" d="M46.2,63.4c-0.6,0.1,2.5,2.1,1.2,6.4c-0.1,0.2-0.1,0.5-0.2,0.7c0.1-0.1,0.3-0.2,0.4-0.3
	c0.1-0.3,0.1-0.6,0.2-0.9c0.9-3.3-1.7-5.7-1.4-5.7c0.7,0.2,2.5,2.2,3,5.3c0.1-0.1,0.2-0.2,0.4-0.3C49.1,65.2,46.8,63.4,46.2,63.4"/>
<path class="st1" d="M45.1,65.6c-0.6-0.2,1.6,2.8-1,6.4c0.2-0.1,0.4-0.1,0.5-0.2c0,0,0,0,0,0c2-2.8,0.3-6,0.6-5.9
	c0.5,0.3,1.4,2.4,1.2,5.1c0.1-0.1,0.3-0.1,0.4-0.2C47,67.8,45.7,65.7,45.1,65.6"/>
<path class="st1" d="M33.1,58.3c-0.6-0.6-5.5-0.5-8.4,4.3c0.1,0.1,0.2,0.3,0.3,0.4c2.5-4,6-4.8,7.2-4.6c0.2,0.2-2.7,0.3-4.2,3.4
	c-0.5,1.1-1.2,2.2-1.9,3.2c0.1,0.1,0.2,0.2,0.3,0.4c0.6-0.8,1.2-1.8,1.7-2.9C29.8,58.3,33.5,58.7,33.1,58.3"/>
<path class="st1" d="M40.6,60.3v2.5h2.5v2h-2.5v6.9h-2v-6.9H36v-2h2.5v-2.5H40.6z M38.1,59.8v2.5h-2.5v3h2.5v6.9h3v-6.9h2.5v-3h-2.5
	v-2.5H38.1z"/>
<path class="st1" d="M41,66.3c0.6,0.6,1.5,0.8,1.3,2.1c0.3-0.9,0.5-1.4,2.4-1.8c-0.6,2.1-1.1,1.5-1.1,3.3c0,1.2-1,2.1-1.5,2.3
	c-1.1,0.6-4.3,0.6-5.5,0.2c-2.1-0.7-3-3.9-1.5-5.1c0.9,2.5,0.2,0.8,1.2,1.8c-0.6-1.6,0-3,1-4.2c0,2.4,0.6,2.1,1.3,4.5
	c0-1.1,0.7-0.9,0.5-3.6c1.8,1.9,1.3,2.5,1.4,3.3C41.1,67.2,41.4,67.9,41,66.3"/>
<path class="st11" d="M41.3,66.9c0.5,0.7,1,0.9,0.8,2.8c0.4-1,0.5-2.4,2.2-2.7c-0.4,1.6-1,1.5-1,3c0,1-0.9,1.8-1.4,2
	c-1,0.5-3.9,0.5-5.1,0.1c-1.9-0.6-2.4-3.3-1.7-4c0.9,2.5,0.3-0.4,2.1,2.8c-0.6-1.3-1-3.9,0-5.3c0,2,1.2,2.9,1.6,5.6
	c0-1.8,0.7-2.5,0.7-4.3c1.6,1.6,0.8,2.9,1,3.7C40.9,68.8,41.7,68.6,41.3,66.9"/>
<path class="st2" d="M38.6,72.9c0,0-3.1-0.5-3-2.7c0,0,0.9,1.3,1.8,1.2c0.2,0-0.2-1.1-0.1-1.9c0,0,0.3,1.6,1.4,2.2
	c0,0,1.6-0.9,1.2-2.6c0,0,0.3,0.6,0.3,1.3c0,0.3,0,0.8,0,0.8s0.3,0.1,0.8-0.7c0.3-0.6,0.6-1,0.6-1c0.2,0.5,0.3,0.9,0.3,1.3
	c0,0,0.5-1.2,1.1-1.6c-0.4,0.7,0.1,3-2.5,3.8C40,73,40,73.1,38.6,72.9"/>
<path class="st13" d="M37.3,70.8c-1-1.7-1.3-1.7-1.5-1.6c-0.2,0-0.2,0-0.7-1.1c-0.7,0.7-0.2,3.5,1.7,4c1.2,0.4,4.1,0.3,5.1-0.1
	c0.4-0.2,1.4-1,1.4-2c0-1.5,0.6-1.4,1-3c-1.8,0.3-1.8,1.7-2.2,2.7c0.2-1.9-0.2-2.1-0.8-2.8c0.4,1.8-0.5,2-0.9,3.6
	c-0.2-0.8,0.7-2.1-1-3.7c0,1.8-0.7,2.5-0.7,4.3c-0.4-2.7-1.6-3.6-1.6-5.6C36.2,66.9,36.6,69.5,37.3,70.8"/>
<path class="st1" d="M21.6,48.1c0-13.4,8.1-24.2,18-24.2s18,10.9,18,24.2c0,13.3-8.1,24.2-18,24.2S21.6,61.5,21.6,48.1 M20.7,48.1
	c0,13.8,8.4,25,18.8,25s18.8-11.2,18.8-25c0-13.8-8.4-25-18.8-25S20.7,34.3,20.7,48.1"/>
<path class="st14" d="M30.4,26.6c-0.4-0.3-1.5,0.1-2.4,0.5c0.6-1.5,0-2.6-0.2-3c0,0-1.2,1.2-0.9,2c0.2,0.8,0.5,1.6,0.2,2
	c0.6-0.2,1.1-0.2,1.5-0.3C29,27.8,29.8,27.5,30.4,26.6"/>
<path class="st15" d="M27.8,24.4c0,0,0.6,1.2,0.4,2.3c-0.2,1.1-0.5-1-0.4-1.4C27.8,25.1,27.8,24.4,27.8,24.4"/>
<path class="st15" d="M30.5,26.5c0,0-0.8,1.5-2,1.3C27.4,27.5,30.5,26.5,30.5,26.5"/>
<path class="st1" d="M28.6,27.9c-0.4,0-0.9,0-1.5,0.3c0.3-0.4,0-1.2-0.2-2c-0.2-0.8,0.9-2,0.9-2c0.2,0.3,0.8,1.5,0.2,3
	c0.9-0.4,1.9-0.8,2.4-0.5C29.8,27.5,29,27.8,28.6,27.9 M31,26.4c0,0-1-0.4-1.6-0.1c-0.8,0.3-1,0.4-1,0.4c0.7-1.2-0.6-3.2-0.7-3.1
	c-0.2,0.1-0.6,0.7-1,1.3c-0.4,0.5-0.5,1.2,0,2.3C27,28,26,29.2,26,29.2c0.8-0.7,1-0.7,2.4-0.8C29.8,28.2,31,26.4,31,26.4"/>
<path class="st14" d="M28,28.5c-0.4-0.3-1.5,0.2-2.4,0.5c0.6-1.5,0-2.6-0.2-3c0,0-1.2,1.2-0.9,2c0.2,0.8,0.5,1.6,0.2,2
	c0.6-0.2,1.1-0.2,1.5-0.3C26.7,29.7,27.4,29.4,28,28.5"/>
<path class="st15" d="M25.4,26.3c0,0,0.6,1.2,0.4,2.3c-0.2,1.1-0.5-1-0.4-1.4C25.5,26.9,25.4,26.3,25.4,26.3"/>
<path class="st15" d="M28.1,28.4c0,0-0.8,1.5-2,1.3C25,29.4,28.1,28.4,28.1,28.4"/>
<path class="st1" d="M26.2,29.8c-0.4,0-0.9,0-1.5,0.3c0.3-0.4,0-1.2-0.2-2c-0.2-0.8,0.9-2,0.9-2c0.2,0.3,0.8,1.5,0.2,3
	c0.9-0.4,1.9-0.8,2.4-0.5C27.4,29.4,26.7,29.7,26.2,29.8 M28.7,28.2c0,0-1-0.4-1.6-0.1c-0.8,0.3-1,0.4-1,0.4
	c0.7-1.2-0.6-3.2-0.8-3.1c-0.2,0.1-0.5,0.7-1,1.3c-0.4,0.5-0.5,1.3,0,2.3c0.4,0.9-0.6,2.1-0.6,2.1c0.8-0.7,1-0.7,2.4-0.8
	C27.4,30.1,28.7,28.2,28.7,28.2"/>
<path class="st14" d="M26.3,30.5c-0.5-0.2-1.5,0.3-2.3,0.7c0.5-1.5-0.2-2.6-0.4-2.9c0,0-1.1,1.3-0.8,2.1c0.3,0.7,0.6,1.6,0.3,2
	c0.6-0.3,1.1-0.3,1.5-0.4C25.1,31.9,25.8,31.5,26.3,30.5"/>
<path class="st15" d="M23.6,28.5c0,0,0.7,1.1,0.6,2.3c-0.1,1.1-0.6-0.9-0.5-1.4C23.7,29.2,23.6,28.5,23.6,28.5"/>
<path class="st15" d="M26.4,30.4c0,0-0.7,1.6-1.9,1.4C23.4,31.6,26.4,30.4,26.4,30.4"/>
<path class="st1" d="M24.6,31.9c-0.4,0.1-0.9,0.1-1.5,0.4c0.3-0.4,0-1.2-0.3-2c-0.3-0.7,0.8-2.1,0.8-2.1c0.2,0.3,0.9,1.4,0.4,2.9
	c0.8-0.4,1.9-0.9,2.3-0.7C25.8,31.5,25.1,31.9,24.6,31.9 M27,30.2c0,0-1.1-0.3-1.6,0c-0.8,0.4-1,0.5-1,0.5c0.6-1.2-0.8-3.1-1-3.1
	c-0.2,0.1-0.5,0.8-0.8,1.3c-0.3,0.5-0.4,1.3,0.1,2.3c0.5,0.9-0.5,2.2-0.5,2.2c0.7-0.8,0.9-0.8,2.3-1C25.9,32.2,27,30.2,27,30.2"/>
<path class="st14" d="M25,32.6c-0.5-0.2-1.5,0.5-2.2,1c0.3-1.6-0.6-2.6-0.8-2.9c0,0-0.9,1.5-0.5,2.1c0.4,0.7,0.8,1.5,0.6,1.9
	c0.6-0.4,1-0.4,1.5-0.6C23.9,34.1,24.6,33.7,25,32.6"/>
<path class="st15" d="M21.9,31c0,0,0.9,1,0.9,2.2c0,1.2-0.7-0.8-0.7-1.3C22.1,31.7,21.9,31,21.9,31"/>
<path class="st15" d="M25,32.5c0,0-0.5,1.6-1.7,1.6C22.2,34.1,25,32.5,25,32.5"/>
<path class="st1" d="M23.4,34.3c-0.4,0.1-0.9,0.2-1.5,0.6c0.2-0.5-0.2-1.2-0.6-1.9c-0.4-0.7,0.5-2.1,0.5-2.1
	c0.2,0.3,1.1,1.3,0.8,2.9c0.8-0.5,1.7-1.2,2.2-1C24.6,33.7,23.9,34.1,23.4,34.3 M25.5,32.3c0,0-1.1-0.2-1.6,0.2
	c-0.7,0.5-0.9,0.6-0.9,0.6c0.5-1.3-1.2-3-1.4-2.9c-0.2,0.1-0.4,0.8-0.7,1.5c-0.3,0.6-0.2,1.3,0.4,2.2c0.6,0.8-0.2,2.2-0.2,2.2
	c0.6-0.9,0.8-0.9,2.2-1.3C24.7,34.4,25.5,32.3,25.5,32.3"/>
<path class="st14" d="M23.8,34.9c-0.5-0.1-1.4,0.7-2.2,1.3c0.1-1.6-0.9-2.6-1.2-2.8c0,0-0.7,1.6-0.3,2.2c0.5,0.7,1,1.4,0.8,1.9
	c0.5-0.4,1-0.6,1.4-0.8C22.8,36.6,23.5,36,23.8,34.9"/>
<path class="st15" d="M20.5,33.6c0,0,1,1,1.2,2.1c0.1,1.2-0.8-0.8-0.9-1.2C20.8,34.3,20.5,33.6,20.5,33.6"/>
<path class="st15" d="M23.8,34.7c0,0-0.3,1.7-1.5,1.9C21.1,36.8,23.8,34.7,23.8,34.7"/>
<path class="st1" d="M22.4,36.7c-0.4,0.2-0.9,0.3-1.4,0.8c0.2-0.5-0.4-1.2-0.8-1.9c-0.5-0.7,0.3-2.2,0.3-2.2
	c0.3,0.3,1.3,1.2,1.2,2.8c0.7-0.6,1.6-1.4,2.2-1.3C23.5,36,22.8,36.6,22.4,36.7 M24.3,34.5c0,0-1.1,0-1.6,0.4
	c-0.7,0.6-0.8,0.8-0.8,0.8c0.3-1.4-1.6-2.9-1.8-2.8c-0.1,0.2-0.3,0.9-0.5,1.6c-0.2,0.6,0,1.4,0.7,2.2c0.7,0.8,0.1,2.3,0.1,2.3
	c0.5-1,0.7-1,2-1.6C23.7,36.7,24.3,34.5,24.3,34.5"/>
<path class="st14" d="M22.7,37.4c-0.5,0-1.3,0.8-2,1.6c-0.1-1.6-1.2-2.4-1.5-2.6c0,0-0.5,1.7,0,2.3c0.6,0.6,1.2,1.2,1.1,1.8
	c0.5-0.5,0.9-0.7,1.3-0.9C22,39.2,22.6,38.6,22.7,37.4"/>
<path class="st15" d="M19.3,36.6c0,0,1.1,0.8,1.4,2c0.3,1.2-0.9-0.6-1-1.1C19.6,37.2,19.3,36.6,19.3,36.6"/>
<path class="st15" d="M22.7,37.3c0,0-0.1,1.8-1.2,2.1C20.3,39.6,22.7,37.3,22.7,37.3"/>
<path class="st1" d="M21.6,39.5c-0.4,0.2-0.8,0.4-1.3,0.9c0.1-0.5-0.5-1.2-1.1-1.8c-0.6-0.6,0-2.3,0-2.3c0.3,0.2,1.4,1,1.5,2.6
	c0.6-0.7,1.4-1.6,2-1.6C22.6,38.6,22,39.2,21.6,39.5 M23.2,36.9c0,0-1.1,0.1-1.6,0.6c-0.6,0.7-0.7,0.9-0.7,0.9
	c0.1-1.4-2-2.6-2.1-2.6c-0.1,0.2-0.2,0.9-0.3,1.6c-0.1,0.6,0.1,1.4,1,2.1c0.8,0.7,0.4,2.2,0.4,2.2c0.4-1,0.6-1.1,1.8-1.8
	C22.9,39.2,23.2,36.9,23.2,36.9"/>
<path class="st14" d="M21.8,40c-0.5,0-1.2,1-1.8,1.9c-0.3-1.6-1.6-2.3-1.9-2.4c0,0-0.3,1.8,0.4,2.3c0.6,0.5,1.4,1.1,1.3,1.6
	c0.4-0.6,0.8-0.9,1.2-1.1C21.4,41.9,21.9,41.2,21.8,40"/>
<path class="st15" d="M18.3,39.7c0,0,1.3,0.7,1.7,1.8c0.5,1.1-1-0.5-1.2-0.9C18.7,40.2,18.3,39.7,18.3,39.7"/>
<path class="st15" d="M21.9,39.9c0,0,0.2,1.8-1,2.2C19.8,42.6,21.9,39.9,21.9,39.9"/>
<path class="st1" d="M21,42.2c-0.4,0.3-0.8,0.6-1.2,1.1c0.1-0.5-0.7-1.1-1.3-1.6c-0.6-0.5-0.4-2.3-0.4-2.3c0.3,0.2,1.6,0.8,1.9,2.4
	c0.5-0.8,1.2-1.8,1.8-1.9C21.9,41.2,21.4,41.9,21,42.2 M22.3,39.5c0,0-1.1,0.3-1.5,0.8c-0.5,0.8-0.6,1-0.6,1
	c-0.1-1.4-2.3-2.4-2.5-2.3c-0.1,0.2,0,0.9-0.1,1.7c0,0.7,0.3,1.4,1.3,2c0.9,0.6,0.7,2.2,0.7,2.2c0.3-1.1,0.4-1.2,1.6-2.1
	C22.3,41.8,22.3,39.5,22.3,39.5"/>
<path class="st14" d="M21.3,42.9c-0.5,0.1-1.1,1.2-1.6,2c-0.5-1.6-1.8-2.1-2.2-2.2c0,0-0.1,1.8,0.6,2.2c0.7,0.4,1.5,0.9,1.5,1.5
	c0.4-0.6,0.7-0.9,1.1-1.3C21,44.8,21.5,44,21.3,42.9"/>
<path class="st15" d="M17.7,42.9c0,0,1.3,0.5,1.9,1.6c0.6,1.1-1.1-0.4-1.3-0.8C18.2,43.4,17.7,42.9,17.7,42.9"/>
<path class="st15" d="M21.3,42.7c0,0,0.4,1.8-0.7,2.3C19.5,45.6,21.3,42.7,21.3,42.7"/>
<path class="st1" d="M20.7,45.1c-0.3,0.3-0.7,0.6-1.1,1.3c0-0.5-0.8-1-1.5-1.5c-0.7-0.4-0.6-2.2-0.6-2.2c0.4,0.1,1.6,0.6,2.2,2.2
	c0.4-0.9,1-1.9,1.5-2C21.5,44,21,44.8,20.7,45.1 M21.7,42.3c0,0-1.1,0.4-1.4,1c-0.4,0.8-0.5,1-0.5,1c-0.2-1.4-2.6-2.1-2.7-2
	c-0.1,0.2,0.1,1,0.1,1.7c0,0.7,0.5,1.3,1.5,1.8c0.9,0.5,0.9,2.1,0.9,2.1c0.1-1.1,0.3-1.2,1.3-2.3C22,44.6,21.7,42.3,21.7,42.3"/>
<path class="st14" d="M21,45.5c-0.5,0.1-1,1.2-1.4,2.1c-0.6-1.5-1.9-2-2.3-2.1c0,0,0,1.8,0.7,2.2c0.7,0.4,1.5,0.8,1.6,1.4
	c0.3-0.6,0.7-1,1-1.3C20.9,47.5,21.2,46.7,21,45.5"/>
<path class="st15" d="M17.4,45.7c0,0,1.4,0.4,2,1.5c0.6,1-1.1-0.3-1.3-0.7C18,46.2,17.4,45.7,17.4,45.7"/>
<path class="st15" d="M21,45.4c0,0,0.5,1.7-0.6,2.4C19.4,48.4,21,45.4,21,45.4"/>
<path class="st1" d="M20.6,47.8c-0.3,0.3-0.7,0.7-1,1.3c0-0.5-0.9-1-1.6-1.4c-0.7-0.4-0.7-2.2-0.7-2.2c0.4,0.1,1.7,0.5,2.3,2.1
	c0.4-0.9,0.9-2,1.4-2.1C21.2,46.7,20.9,47.5,20.6,47.8 M21.3,44.9c0,0-1.1,0.5-1.3,1.1c-0.4,0.8-0.4,1.1-0.4,1.1
	c-0.3-1.4-2.7-2-2.8-1.8c-0.1,0.2,0.1,0.9,0.2,1.7c0.1,0.7,0.6,1.3,1.6,1.7c0.9,0.4,1.1,2,1.1,2c0.1-1.1,0.2-1.2,1.2-2.3
	C21.8,47.2,21.3,44.9,21.3,44.9"/>
<path class="st14" d="M20.9,48.2c-0.5,0.1-1,1.2-1.4,2.1c-0.6-1.5-1.9-2-2.3-2.1c0,0,0,1.8,0.7,2.2c0.7,0.4,1.5,0.8,1.6,1.4
	c0.3-0.6,0.7-1,1-1.3C20.7,50.1,21.1,49.3,20.9,48.2"/>
<path class="st15" d="M17.3,48.4c0,0,1.3,0.4,2,1.5c0.6,1-1.1-0.3-1.3-0.7C17.8,48.9,17.3,48.4,17.3,48.4"/>
<path class="st15" d="M20.9,48c0,0,0.5,1.7-0.6,2.4C19.3,51,20.9,48,20.9,48"/>
<path class="st1" d="M20.4,50.4c-0.3,0.3-0.7,0.7-1,1.3c0-0.5-0.9-1-1.6-1.4c-0.7-0.4-0.7-2.2-0.7-2.2c0.4,0.1,1.7,0.5,2.3,2.1
	c0.4-0.9,0.9-2,1.4-2.1C21.1,49.3,20.7,50.1,20.4,50.4 M21.2,47.5c0,0-1,0.5-1.3,1.1c-0.4,0.8-0.4,1.1-0.4,1.1
	c-0.3-1.4-2.7-2-2.8-1.8c-0.1,0.2,0.1,0.9,0.2,1.7c0.1,0.7,0.6,1.3,1.6,1.7c0.9,0.4,1.1,2,1.1,2c0.1-1.1,0.2-1.2,1.2-2.3
	C21.6,49.8,21.2,47.5,21.2,47.5"/>
<path class="st14" d="M21,50.7c-0.5,0.2-0.9,1.3-1.3,2.3c-0.7-1.5-2.1-1.8-2.5-1.9c0,0,0.1,1.8,0.9,2.1c0.8,0.4,1.6,0.7,1.7,1.3
	c0.3-0.7,0.6-1,0.9-1.4C21,52.7,21.3,51.9,21,50.7"/>
<path class="st15" d="M17.4,51.3c0,0,1.4,0.3,2.1,1.3c0.7,1-1.1-0.3-1.4-0.6C17.9,51.7,17.4,51.3,17.4,51.3"/>
<path class="st15" d="M20.9,50.6c0,0,0.6,1.7-0.4,2.4C19.6,53.7,20.9,50.6,20.9,50.6"/>
<path class="st1" d="M20.7,53.1c-0.3,0.4-0.6,0.7-0.9,1.4c-0.1-0.5-0.9-0.9-1.7-1.3c-0.8-0.4-0.9-2.1-0.9-2.1
	c0.4,0.1,1.7,0.4,2.5,1.9c0.3-0.9,0.7-2.1,1.3-2.3C21.3,51.9,21,52.7,20.7,53.1 M21.2,50.1c0,0-1,0.6-1.3,1.2
	c-0.3,0.9-0.4,1.1-0.4,1.1c-0.4-1.4-2.9-1.7-3-1.6c-0.1,0.2,0.2,1,0.3,1.7c0.1,0.7,0.7,1.2,1.8,1.6c1,0.3,1.2,2,1.2,2
	c0-1.1,0.1-1.3,1-2.5C21.9,52.4,21.2,50.1,21.2,50.1"/>
<path class="st14" d="M21.3,53.5c-0.5,0.2-0.9,1.4-1.1,2.4c-0.9-1.5-2.2-1.7-2.6-1.8c0,0,0.3,1.8,1.1,2.1c0.8,0.3,1.7,0.6,1.8,1.2
	c0.2-0.7,0.5-1.1,0.8-1.5C21.5,55.5,21.7,54.7,21.3,53.5"/>
<path class="st15" d="M17.8,54.3c0,0,1.4,0.2,2.2,1.2c0.8,0.9-1.1-0.2-1.4-0.6C18.4,54.7,17.8,54.3,17.8,54.3"/>
<path class="st15" d="M21.3,53.4c0,0,0.7,1.7-0.2,2.5C20.1,56.6,21.3,53.4,21.3,53.4"/>
<path class="st1" d="M21.2,55.9c-0.3,0.4-0.6,0.8-0.8,1.5c-0.1-0.6-1-0.9-1.8-1.2c-0.8-0.3-1.1-2.1-1.1-2.1c0.4,0.1,1.8,0.3,2.6,1.8
	c0.3-1,0.6-2.2,1.1-2.4C21.7,54.7,21.5,55.5,21.2,55.9 M21.6,52.8c0,0-1,0.6-1.2,1.3c-0.3,0.9-0.3,1.1-0.3,1.1
	c-0.5-1.4-3-1.6-3.1-1.4c0,0.2,0.3,0.9,0.4,1.6c0.2,0.6,0.8,1.2,1.9,1.5c1,0.3,1.4,1.9,1.4,1.9c-0.1-1.2,0.1-1.3,0.9-2.5
	C22.4,55.1,21.6,52.8,21.6,52.8"/>
<path class="st14" d="M21.9,56.2c-0.5,0.2-0.8,1.5-1,2.5c-1-1.4-2.4-1.5-2.8-1.6c0,0,0.4,1.8,1.2,2c0.8,0.2,1.7,0.5,1.9,1
	c0.2-0.7,0.5-1.1,0.7-1.5C22.2,58.2,22.4,57.3,21.9,56.2"/>
<path class="st15" d="M18.4,57.2c0,0,1.5,0.1,2.3,1c0.9,0.9-1.2-0.1-1.5-0.4C19,57.6,18.4,57.2,18.4,57.2"/>
<path class="st15" d="M21.8,56c0,0,0.8,1.6,0,2.5C20.9,59.4,21.8,56,21.8,56"/>
<path class="st1" d="M22,58.6c-0.2,0.4-0.5,0.8-0.7,1.5c-0.2-0.5-1.1-0.8-1.9-1c-0.8-0.2-1.2-2-1.2-2c0.4,0,1.8,0.2,2.8,1.6
	c0.2-1,0.4-2.2,1-2.5C22.4,57.3,22.2,58.2,22,58.6 M22.1,55.5c0,0-0.9,0.7-1.1,1.4c-0.2,0.9-0.2,1.2-0.2,1.2
	c-0.6-1.3-3.2-1.4-3.3-1.2c0,0.2,0.3,0.9,0.6,1.6c0.2,0.6,0.9,1.2,2,1.4c1,0.2,1.5,1.8,1.5,1.8c-0.2-1.1,0-1.3,0.7-2.6
	C23,57.7,22.1,55.5,22.1,55.5"/>
<path class="st14" d="M22.5,58.4c-0.5,0.3-0.6,1.5-0.7,2.6c-1.1-1.3-2.5-1.3-2.9-1.3c0,0,0.6,1.7,1.4,1.9c0.8,0.2,1.8,0.3,2,0.8
	c0.1-0.7,0.3-1.2,0.5-1.6C23,60.3,23.1,59.4,22.5,58.4"/>
<path class="st15" d="M19,59.8c0,0,1.5,0,2.4,0.8c1,0.8-1.2,0-1.5-0.3C19.7,60.1,19,59.8,19,59.8"/>
<path class="st15" d="M22.4,58.2c0,0,1,1.6,0.2,2.5C21.8,61.7,22.4,58.2,22.4,58.2"/>
<path class="st1" d="M22.8,60.7c-0.2,0.4-0.4,0.9-0.5,1.6c-0.2-0.5-1.2-0.7-2-0.8c-0.8-0.2-1.4-1.9-1.4-1.9c0.4,0,1.8,0,2.9,1.3
	c0.1-1,0.2-2.3,0.7-2.6C23.1,59.4,23,60.3,22.8,60.7 M22.6,57.6c0,0-0.9,0.8-1,1.5c-0.1,0.9-0.1,1.2-0.1,1.2c-0.8-1.3-3.3-1-3.4-0.9
	c0,0.2,0.4,0.9,0.7,1.6c0.3,0.6,1,1.1,2.2,1.2c1.1,0.1,1.7,1.7,1.7,1.7c-0.3-1.1-0.2-1.3,0.4-2.7C23.8,59.8,22.6,57.6,22.6,57.6"/>
<path class="st14" d="M23.5,60.8c-0.5,0.4-0.4,1.6-0.4,2.6c-1.3-1.2-2.7-1-3.1-1c0,0,0.8,1.7,1.6,1.7c0.9,0.1,1.8,0.1,2.1,0.6
	c0-0.7,0.2-1.2,0.3-1.7C24.2,62.7,24.2,61.8,23.5,60.8"/>
<path class="st15" d="M20.2,62.6c0,0,1.5-0.2,2.5,0.5c1.1,0.7-1.2,0.1-1.6-0.1C21,62.9,20.2,62.6,20.2,62.6"/>
<path class="st15" d="M23.4,60.7c0,0,1.2,1.4,0.5,2.5C23.2,64.3,23.4,60.7,23.4,60.7"/>
<path class="st1" d="M24.1,63.2c-0.1,0.5-0.3,0.9-0.3,1.7c-0.3-0.5-1.2-0.5-2.1-0.6c-0.9-0.1-1.6-1.7-1.6-1.7c0.4-0.1,1.8-0.2,3.1,1
	c0-1-0.1-2.3,0.4-2.6C24.2,61.8,24.2,62.7,24.1,63.2 M23.5,60.1c0,0-0.8,0.9-0.8,1.6c0,0.9,0.1,1.2,0.1,1.2
	c-0.9-1.2-3.4-0.6-3.5-0.5c0,0.2,0.5,0.8,0.9,1.5c0.4,0.6,1.1,1,2.3,0.9c1.1,0,1.9,1.5,1.9,1.5c-0.4-1.1-0.3-1.3,0.1-2.7
	C25,62.1,23.5,60.1,23.5,60.1"/>
<path class="st14" d="M24.7,63.1c-0.4,0.4-0.2,1.7,0,2.7c-1.4-1-2.8-0.6-3.2-0.5c0,0,1.1,1.5,1.9,1.5c0.9-0.1,1.8-0.2,2.2,0.3
	c-0.1-0.7,0-1.2,0.1-1.7C25.7,64.8,25.6,63.9,24.7,63.1"/>
<path class="st15" d="M21.7,65.4c0,0,1.4-0.4,2.6,0.1c1.2,0.5-1.1,0.3-1.6,0.1C22.5,65.5,21.7,65.4,21.7,65.4"/>
<path class="st15" d="M24.6,62.9c0,0,1.4,1.2,0.9,2.4C25,66.5,24.6,62.9,24.6,62.9"/>
<path class="st1" d="M25.6,65.3c-0.1,0.5-0.2,1-0.1,1.7c-0.3-0.5-1.3-0.3-2.2-0.3c-0.9,0.1-1.9-1.5-1.9-1.5c0.4-0.1,1.8-0.5,3.2,0.5
	c-0.2-1-0.4-2.3,0-2.7C25.6,63.9,25.7,64.8,25.6,65.3 M24.6,62.3c0,0-0.6,1-0.5,1.7c0.2,0.9,0.2,1.2,0.2,1.2c-1.1-1-3.5-0.1-3.5,0.1
	c0.1,0.2,0.7,0.7,1.1,1.3c0.5,0.5,1.2,0.8,2.4,0.5c1.1-0.2,2.1,1.2,2.1,1.2c-0.6-1-0.5-1.2-0.3-2.7C26.3,64.1,24.6,62.3,24.6,62.3"
	/>
<path class="st14" d="M26.2,65.5c-0.4,0.5,0,1.7,0.3,2.7c-1.5-0.9-2.9-0.3-3.3-0.2c0,0,1.2,1.5,2.1,1.3c0.9-0.2,1.8-0.4,2.2,0.1
	c-0.2-0.7-0.1-1.2-0.1-1.7C27.4,67.1,27.2,66.3,26.2,65.5"/>
<path class="st15" d="M23.4,68c0,0,1.4-0.6,2.6-0.1c1.2,0.4-1.1,0.4-1.6,0.3C24.2,68.1,23.4,68,23.4,68"/>
<path class="st15" d="M26.1,65.3c0,0,1.5,1.1,1.1,2.3C26.8,68.9,26.1,65.3,26.1,65.3"/>
<path class="st1" d="M27.4,67.6c0,0.5-0.1,1,0.1,1.7c-0.4-0.4-1.3-0.2-2.2-0.1c-0.9,0.1-2.1-1.3-2.1-1.3c0.4-0.1,1.7-0.7,3.3,0.2
	c-0.3-1-0.6-2.2-0.3-2.7C27.2,66.3,27.4,67.1,27.4,67.6 M26,64.7c0,0-0.5,1.1-0.4,1.8c0.2,0.9,0.3,1.2,0.3,1.2
	c-1.2-0.9-3.5,0.2-3.5,0.4c0.1,0.2,0.7,0.7,1.3,1.2c0.5,0.5,1.3,0.7,2.5,0.3c1-0.3,2.2,1,2.2,1c-0.7-1-0.6-1.2-0.6-2.7
	C27.9,66.3,26,64.7,26,64.7"/>
<path class="st14" d="M28.1,67.7c-0.3,0.5,0.2,1.7,0.5,2.7c-1.6-0.7-2.9,0-3.3,0.2c0,0,1.3,1.3,2.2,1.1c0.8-0.2,1.8-0.5,2.2-0.2
	c-0.2-0.7-0.2-1.2-0.3-1.7C29.5,69.3,29.2,68.4,28.1,67.7"/>
<path class="st15" d="M25.7,70.6c0,0,1.3-0.7,2.6-0.4c1.2,0.3-1.1,0.6-1.5,0.4C26.4,70.5,25.7,70.6,25.7,70.6"/>
<path class="st15" d="M28,67.6c0,0,1.6,0.9,1.4,2.2C29.1,71.1,28,67.6,28,67.6"/>
<path class="st1" d="M29.5,69.8c0,0.5,0,1,0.3,1.7c-0.4-0.4-1.4-0.1-2.2,0.2c-0.8,0.2-2.2-1.1-2.2-1.1c0.4-0.2,1.6-0.9,3.3-0.2
	c-0.4-1-0.9-2.2-0.5-2.7C29.2,68.4,29.5,69.3,29.5,69.8 M27.9,67c0,0-0.4,1.1-0.2,1.8c0.3,0.9,0.5,1.1,0.5,1.1
	c-1.3-0.8-3.5,0.6-3.5,0.8c0.1,0.2,0.8,0.6,1.4,1.1c0.6,0.4,1.4,0.5,2.5,0.1c1-0.4,2.3,0.7,2.3,0.7c-0.8-0.9-0.8-1.1-0.9-2.6
	C30,68.4,27.9,67,27.9,67"/>
<path class="st14" d="M30.3,69.6c-0.2,0.5,0.5,1.6,1,2.5c-1.7-0.4-2.9,0.6-3.2,0.8c0,0,1.6,1,2.4,0.6c0.8-0.4,1.7-0.9,2.1-0.6
	c-0.4-0.7-0.5-1.2-0.6-1.7C31.9,70.9,31.4,70.1,30.3,69.6"/>
<path class="st15" d="M28.3,72.9c0,0,1.2-1,2.5-0.9c1.3,0-0.9,0.8-1.4,0.7C29.1,72.7,28.3,72.9,28.3,72.9"/>
<path class="st15" d="M30.1,69.5c0,0,1.8,0.6,1.8,1.9C31.8,72.7,30.1,69.5,30.1,69.5"/>
<path class="st1" d="M32,71.3c0.1,0.5,0.2,1,0.6,1.6c-0.5-0.3-1.4,0.2-2.1,0.6c-0.8,0.4-2.4-0.6-2.4-0.6c0.3-0.3,1.5-1.2,3.2-0.8
	c-0.6-0.9-1.3-2-1-2.5C31.4,70.1,31.9,70.9,32,71.3 M29.9,68.9c0,0-0.2,1.2,0.2,1.8c0.5,0.8,0.7,1,0.7,1c-1.4-0.5-3.3,1.3-3.3,1.5
	c0.1,0.2,0.9,0.5,1.6,0.8c0.6,0.3,1.5,0.3,2.5-0.4c0.9-0.6,2.4,0.3,2.4,0.3c-1-0.7-1-0.9-1.4-2.4C32.2,69.9,29.9,68.9,29.9,68.9"/>
<path class="st14" d="M32.8,71.3c-0.1,0.6,0.8,1.6,1.5,2.3c-1.8,0-2.8,1.1-3,1.4c0,0,1.8,0.8,2.5,0.2c0.7-0.5,1.5-1.2,2-1
	c-0.5-0.6-0.7-1.1-0.9-1.5C34.7,72.2,34.1,71.5,32.8,71.3"/>
<path class="st15" d="M31.5,74.9c0,0,1-1.2,2.3-1.4c1.3-0.2-0.8,0.9-1.3,1C32.2,74.6,31.5,74.9,31.5,74.9"/>
<path class="st15" d="M32.7,71.2c0,0,1.9,0.3,2.1,1.6C35,74.1,32.7,71.2,32.7,71.2"/>
<path class="st1" d="M34.9,72.7c0.2,0.4,0.4,0.9,0.9,1.5c-0.6-0.2-1.3,0.4-2,1c-0.7,0.6-2.5-0.2-2.5-0.2c0.3-0.3,1.2-1.4,3-1.4
	c-0.7-0.8-1.6-1.7-1.5-2.3C34.1,71.5,34.7,72.2,34.9,72.7 M32.3,70.7c0,0,0,1.2,0.5,1.8c0.7,0.7,0.9,0.9,0.9,0.9
	c-1.5-0.3-3.1,1.9-3,2.1c0.2,0.2,1,0.3,1.7,0.5c0.7,0.2,1.5,0,2.4-0.9c0.8-0.8,2.5-0.2,2.5-0.2c-1.1-0.5-1.1-0.8-1.8-2.2
	C34.8,71.2,32.3,70.7,32.3,70.7"/>
<path class="st14" d="M48.8,26.6c0.5-0.3,1.5,0.2,2.4,0.5c-0.6-1.5,0-2.6,0.2-3c0,0,1.2,1.2,0.9,2c-0.2,0.8-0.5,1.6-0.2,2
	c-0.6-0.2-1.1-0.2-1.5-0.3C50.1,27.8,49.4,27.5,48.8,26.6"/>
<path class="st15" d="M51.4,24.3c0,0-0.7,1.2-0.4,2.3c0.2,1.1,0.5-0.9,0.4-1.4C51.3,25,51.4,24.3,51.4,24.3"/>
<path class="st15" d="M48.7,26.4c0,0,0.8,1.5,2,1.3C51.8,27.4,48.7,26.4,48.7,26.4"/>
<path class="st1" d="M48.8,26.6c0.5-0.3,1.5,0.2,2.4,0.5c-0.6-1.5,0-2.6,0.2-3c0,0,1.2,1.2,0.9,2c-0.2,0.8-0.5,1.6-0.2,2
	c-0.6-0.2-1.1-0.2-1.5-0.3C50.1,27.8,49.4,27.5,48.8,26.6 M50.7,28.3c1.4,0.1,1.6,0.1,2.4,0.8c0,0-1-1.2-0.6-2.1
	c0.4-1,0.4-1.8,0-2.3c-0.4-0.5-0.8-1.2-1-1.3c-0.2,0-1.5,2-0.7,3.1c0,0-0.2-0.1-1-0.4c-0.6-0.2-1.6,0.1-1.6,0.1S49.4,28.2,50.7,28.3
	"/>
<path class="st14" d="M51.1,28.5c0.4-0.3,1.5,0.2,2.4,0.5c-0.6-1.5,0-2.6,0.2-3c0,0,1.2,1.2,0.9,2c-0.2,0.8-0.5,1.6-0.2,2
	c-0.6-0.2-1.1-0.2-1.6-0.3C52.5,29.7,51.7,29.4,51.1,28.5"/>
<path class="st15" d="M53.7,26.2c0,0-0.6,1.2-0.4,2.3c0.2,1.1,0.5-1,0.4-1.4C53.7,26.9,53.7,26.2,53.7,26.2"/>
<path class="st15" d="M51,28.3c0,0,0.8,1.5,2,1.3C54.1,29.3,51,28.3,51,28.3"/>
<path class="st1" d="M51.1,28.5c0.4-0.3,1.5,0.2,2.4,0.5c-0.6-1.5,0-2.6,0.2-3c0,0,1.2,1.2,0.9,2c-0.2,0.8-0.5,1.6-0.2,2
	c-0.6-0.2-1.1-0.2-1.5-0.3C52.5,29.7,51.7,29.4,51.1,28.5 M53.1,30.2c1.4,0.1,1.6,0.1,2.4,0.8c0,0-1-1.2-0.6-2.1
	c0.4-1,0.3-1.8,0-2.3c-0.4-0.5-0.8-1.2-1-1.3c-0.2,0-1.5,2-0.7,3.1c0,0-0.2-0.1-1-0.4c-0.6-0.2-1.6,0.1-1.6,0.1S51.7,30.1,53.1,30.2
	"/>
<path class="st14" d="M52.8,30.5c0.5-0.2,1.5,0.3,2.3,0.7c-0.5-1.5,0.2-2.6,0.4-2.9c0,0,1.1,1.3,0.8,2.1c-0.3,0.7-0.6,1.5-0.3,2
	C55.4,32,55,32,54.5,31.9C54.1,31.8,53.4,31.5,52.8,30.5"/>
<path class="st15" d="M55.6,28.5c0,0-0.7,1.1-0.6,2.3c0.1,1.2,0.6-0.9,0.5-1.3C55.5,29.2,55.6,28.5,55.6,28.5"/>
<path class="st15" d="M52.7,30.4c0,0,0.7,1.6,1.9,1.4C55.7,31.6,52.7,30.4,52.7,30.4"/>
<path class="st1" d="M52.8,30.5c0.5-0.2,1.5,0.3,2.3,0.7c-0.5-1.5,0.2-2.6,0.4-2.9c0,0,1.1,1.3,0.8,2.1c-0.3,0.7-0.6,1.5-0.3,2
	C55.4,32,55,32,54.5,31.9C54.1,31.8,53.4,31.5,52.8,30.5 M54.7,32.4c1.4,0.2,1.6,0.2,2.3,1c0,0-0.9-1.3-0.5-2.2
	c0.5-1,0.5-1.7,0.1-2.3c-0.4-0.6-0.7-1.2-0.9-1.3c-0.2,0-1.6,1.8-1,3.1c0,0-0.2-0.1-1-0.5c-0.6-0.3-1.6,0-1.6,0S53.3,32.2,54.7,32.4
	"/>
<path class="st14" d="M54.2,32.6c0.5-0.2,1.5,0.5,2.2,1C56.2,32,57,31,57.2,30.7c0,0,0.9,1.4,0.5,2.1c-0.4,0.7-0.8,1.5-0.6,1.9
	c-0.6-0.4-1-0.5-1.5-0.6C55.3,34.1,54.6,33.7,54.2,32.6"/>
<path class="st15" d="M57.2,31c0,0-0.9,1-0.9,2.2c0,1.2,0.7-0.8,0.7-1.3C57,31.6,57.2,31,57.2,31"/>
<path class="st15" d="M54.1,32.5c0,0,0.5,1.6,1.7,1.6C57,34.1,54.1,32.5,54.1,32.5"/>
<path class="st1" d="M54.2,32.6c0.5-0.2,1.5,0.5,2.2,1C56.2,32,57,31,57.2,30.7c0,0,0.9,1.4,0.5,2.1c-0.4,0.7-0.8,1.5-0.6,1.9
	c-0.6-0.3-1-0.5-1.5-0.6C55.3,34.1,54.6,33.7,54.2,32.6 M55.8,34.7c1.3,0.4,1.5,0.4,2.2,1.3c0,0-0.7-1.4-0.2-2.2
	c0.6-0.9,0.7-1.6,0.4-2.2c-0.3-0.6-0.5-1.3-0.7-1.4c-0.2,0-1.8,1.6-1.4,2.9c0,0-0.2-0.2-0.9-0.6c-0.5-0.4-1.6-0.2-1.6-0.2
	S54.4,34.3,55.8,34.7"/>
<path class="st14" d="M55.4,34.9c0.5-0.1,1.4,0.7,2.1,1.3c-0.1-1.6,0.9-2.6,1.2-2.8c0,0,0.7,1.6,0.3,2.3c-0.5,0.7-1,1.4-0.8,1.9
	c-0.6-0.4-1-0.6-1.4-0.8C56.3,36.5,55.7,36,55.4,34.9"/>
<path class="st15" d="M58.7,33.6c0,0-1,1-1.2,2.1c-0.1,1.2,0.8-0.8,0.9-1.2C58.4,34.2,58.7,33.6,58.7,33.6"/>
<path class="st15" d="M55.3,34.7c0,0,0.3,1.7,1.5,1.9C58,36.7,55.3,34.7,55.3,34.7"/>
<path class="st1" d="M55.4,34.9c0.5-0.1,1.4,0.7,2.1,1.3c-0.1-1.6,0.9-2.6,1.2-2.8c0,0,0.7,1.6,0.3,2.3c-0.5,0.7-1,1.4-0.8,1.9
	c-0.6-0.4-1-0.6-1.4-0.8C56.3,36.5,55.7,36,55.4,34.9 M56.7,37.2c1.3,0.6,1.5,0.6,2,1.6c0,0-0.6-1.5,0.1-2.3
	c0.7-0.8,0.9-1.6,0.7-2.2c-0.2-0.7-0.4-1.4-0.5-1.6c-0.2-0.1-2.1,1.4-1.8,2.8c0,0-0.1-0.2-0.8-0.8c-0.5-0.4-1.6-0.4-1.6-0.4
	S55.4,36.7,56.7,37.2"/>
<path class="st14" d="M56.5,37.4c0.5-0.1,1.3,0.8,2,1.6c0.1-1.6,1.2-2.4,1.5-2.6c0,0,0.5,1.7,0,2.3c-0.6,0.6-1.2,1.2-1.1,1.8
	c-0.5-0.5-0.9-0.7-1.3-0.9C57.2,39.2,56.6,38.6,56.5,37.4"/>
<path class="st15" d="M59.9,36.6c0,0-1.1,0.8-1.4,2c-0.3,1.2,0.9-0.6,1-1.1C59.5,37.2,59.9,36.6,59.9,36.6"/>
<path class="st15" d="M56.4,37.3c0,0,0.1,1.8,1.2,2.1C58.8,39.6,56.4,37.3,56.4,37.3"/>
<path class="st1" d="M56.5,37.4c0.5-0.1,1.3,0.8,2,1.6c0.1-1.6,1.2-2.4,1.5-2.6c0,0,0.5,1.7,0,2.3c-0.6,0.6-1.2,1.2-1.1,1.8
	c-0.5-0.5-0.9-0.7-1.3-0.9C57.2,39.2,56.6,38.6,56.5,37.4 M57.5,40c1.2,0.7,1.4,0.8,1.8,1.8c0,0-0.4-1.6,0.4-2.2
	c0.9-0.7,1.1-1.5,1-2.1c-0.1-0.7-0.2-1.4-0.3-1.6c-0.1-0.1-2.2,1.1-2.1,2.6c0,0-0.1-0.2-0.7-0.9c-0.5-0.5-1.6-0.6-1.6-0.6
	S56.2,39.2,57.5,40"/>
<path class="st14" d="M57.3,40c0.5,0,1.2,1,1.8,1.9c0.3-1.6,1.6-2.3,1.9-2.4c0,0,0.3,1.8-0.4,2.3c-0.6,0.5-1.4,1.1-1.3,1.6
	c-0.4-0.6-0.8-0.8-1.2-1.1C57.8,41.9,57.3,41.2,57.3,40"/>
<path class="st15" d="M60.9,39.7c0,0-1.3,0.6-1.7,1.8c-0.5,1.1,1-0.5,1.2-0.9C60.4,40.2,60.9,39.7,60.9,39.7"/>
<path class="st15" d="M57.3,39.9c0,0-0.2,1.8,1,2.2C59.4,42.6,57.3,39.9,57.3,39.9"/>
<path class="st1" d="M57.3,40c0.6,0,1.2,1,1.8,1.9c0.3-1.6,1.6-2.3,1.9-2.4c0,0,0.3,1.8-0.4,2.3c-0.6,0.5-1.4,1.1-1.3,1.6
	c-0.4-0.6-0.8-0.8-1.2-1.1C57.8,41.9,57.3,41.2,57.3,40 M58,42.7c1.1,0.9,1.3,1,1.6,2.1c0,0-0.2-1.6,0.7-2.2c1-0.6,1.3-1.3,1.3-2
	c0-0.7,0-1.5-0.1-1.7c-0.1-0.1-2.4,0.8-2.5,2.3c0,0-0.1-0.2-0.6-1c-0.4-0.6-1.5-0.8-1.5-0.8S56.8,41.8,58,42.7"/>
<path class="st14" d="M57.9,42.8c0.5,0.1,1.1,1.2,1.5,2c0.5-1.6,1.8-2.1,2.2-2.2c0,0,0.1,1.8-0.6,2.2c-0.7,0.4-1.5,0.9-1.5,1.5
	c-0.4-0.6-0.7-0.9-1.1-1.3C58.1,44.8,57.7,44,57.9,42.8"/>
<path class="st15" d="M61.4,42.9c0,0-1.3,0.5-1.9,1.6c-0.6,1.1,1.1-0.4,1.3-0.8C60.9,43.4,61.4,42.9,61.4,42.9"/>
<path class="st15" d="M57.9,42.7c0,0-0.4,1.8,0.7,2.3C59.6,45.6,57.9,42.7,57.9,42.7"/>
<path class="st1" d="M57.9,42.8c0.5,0.1,1.1,1.2,1.5,2c0.5-1.6,1.8-2.1,2.2-2.2c0,0,0.1,1.8-0.6,2.2c-0.7,0.4-1.5,0.9-1.5,1.5
	c-0.4-0.6-0.7-0.9-1.1-1.3C58.1,44.8,57.7,44,57.9,42.8 M58.2,45.6c1,1,1.2,1.1,1.3,2.3c0,0,0-1.6,0.9-2.1c1-0.5,1.5-1.2,1.5-1.8
	c0.1-0.7,0.2-1.5,0.1-1.7c-0.1-0.1-2.5,0.6-2.7,2c0,0-0.1-0.2-0.5-1c-0.3-0.6-1.4-1-1.4-1S57.2,44.6,58.2,45.6"/>
<path class="st14" d="M58.2,45.5c0.5,0.1,1,1.2,1.4,2.1c0.6-1.5,1.9-2,2.3-2.1c0,0,0,1.8-0.7,2.2c-0.7,0.4-1.5,0.8-1.6,1.4
	c-0.3-0.6-0.7-1-1-1.3C58.3,47.4,57.9,46.7,58.2,45.5"/>
<path class="st15" d="M61.7,45.7c0,0-1.4,0.4-2,1.5c-0.6,1,1.1-0.3,1.3-0.7C61.2,46.2,61.7,45.7,61.7,45.7"/>
<path class="st15" d="M58.2,45.3c0,0-0.5,1.7,0.6,2.4C59.8,48.3,58.2,45.3,58.2,45.3"/>
<path class="st1" d="M58.2,45.5c0.5,0.1,1,1.2,1.4,2.1c0.6-1.5,1.9-2,2.3-2.1c0,0,0,1.8-0.7,2.2c-0.7,0.4-1.5,0.8-1.6,1.4
	c-0.3-0.6-0.7-1-1-1.3C58.3,47.4,57.9,46.7,58.2,45.5 M58.4,48.3c1,1.1,1.1,1.2,1.2,2.3c0,0,0.1-1.6,1.1-2c1.1-0.5,1.5-1.1,1.6-1.7
	c0.1-0.7,0.3-1.4,0.2-1.7c-0.1-0.1-2.5,0.4-2.8,1.8c0,0-0.1-0.2-0.4-1.1c-0.3-0.6-1.3-1.1-1.3-1.1S57.4,47.2,58.4,48.3"/>
<path class="st14" d="M58.3,48.1c0.5,0.1,1,1.2,1.4,2.1c0.6-1.5,1.9-2,2.3-2.1c0,0,0,1.8-0.7,2.2c-0.7,0.4-1.5,0.8-1.6,1.4
	c-0.3-0.6-0.7-1-1-1.3C58.4,50.1,58.1,49.3,58.3,48.1"/>
<path class="st15" d="M61.8,48.4c0,0-1.4,0.4-2,1.5c-0.6,1,1.1-0.3,1.3-0.7C61.3,48.9,61.8,48.4,61.8,48.4"/>
<path class="st15" d="M58.3,48c0,0-0.5,1.7,0.6,2.4C59.9,51,58.3,48,58.3,48"/>
<path class="st1" d="M58.3,48.1c0.5,0.1,1,1.2,1.4,2.1c0.6-1.5,1.9-2,2.3-2.1c0,0,0,1.8-0.7,2.2c-0.7,0.4-1.5,0.8-1.6,1.4
	c-0.3-0.6-0.7-1-1-1.3C58.4,50.1,58.1,49.3,58.3,48.1 M58.5,50.9c1,1.1,1.1,1.2,1.2,2.3c0,0,0.1-1.6,1.1-2c1.1-0.5,1.5-1.1,1.6-1.7
	c0.1-0.7,0.3-1.4,0.2-1.7c-0.1-0.1-2.5,0.4-2.8,1.8c0,0,0-0.2-0.4-1.1C59,48,58,47.5,58,47.5S57.5,49.8,58.5,50.9"/>
<path class="st14" d="M58.2,50.7c0.5,0.2,0.9,1.3,1.3,2.3c0.8-1.5,2.1-1.8,2.5-1.9c0,0-0.1,1.8-0.9,2.2c-0.8,0.4-1.6,0.7-1.7,1.3
	c-0.3-0.7-0.6-1-0.9-1.4C58.2,52.7,57.9,51.9,58.2,50.7"/>
<path class="st15" d="M61.8,51.2c0,0-1.4,0.3-2.1,1.3c-0.7,1,1.1-0.3,1.4-0.6C61.2,51.7,61.8,51.2,61.8,51.2"/>
<path class="st15" d="M58.2,50.6c0,0-0.6,1.7,0.4,2.4C59.6,53.7,58.2,50.6,58.2,50.6"/>
<path class="st1" d="M58.2,50.7c0.5,0.2,0.9,1.3,1.3,2.3c0.8-1.5,2.1-1.8,2.5-1.9c0,0-0.1,1.8-0.9,2.2c-0.8,0.4-1.6,0.7-1.7,1.3
	c-0.3-0.7-0.6-1-0.9-1.4C58.2,52.7,57.9,51.9,58.2,50.7 M58.2,53.5c0.9,1.2,1,1.3,1,2.5c0,0,0.2-1.6,1.2-2c1.1-0.4,1.6-1,1.8-1.6
	c0.2-0.7,0.4-1.4,0.3-1.7c-0.1-0.1-2.6,0.2-3,1.6c0,0,0-0.2-0.4-1.1c-0.2-0.6-1.3-1.2-1.3-1.2S57.3,52.3,58.2,53.5"/>
<path class="st14" d="M57.8,53.5c0.5,0.2,0.9,1.4,1.1,2.4c0.9-1.5,2.2-1.7,2.6-1.8c0,0-0.3,1.8-1.1,2.1c-0.8,0.3-1.7,0.6-1.8,1.2
	c-0.2-0.7-0.5-1.1-0.8-1.5C57.7,55.5,57.4,54.6,57.8,53.5"/>
<path class="st15" d="M61.4,54.3c0,0-1.4,0.2-2.2,1.2c-0.8,0.9,1.1-0.2,1.4-0.5C60.8,54.7,61.4,54.3,61.4,54.3"/>
<path class="st15" d="M57.9,53.3c0,0-0.7,1.7,0.2,2.5C59,56.6,57.9,53.3,57.9,53.3"/>
<path class="st1" d="M57.8,53.5c0.5,0.2,0.9,1.4,1.1,2.4c0.8-1.5,2.2-1.7,2.6-1.8c0,0-0.3,1.8-1.1,2.1c-0.8,0.3-1.7,0.6-1.8,1.2
	c-0.2-0.7-0.5-1.1-0.8-1.5C57.7,55.5,57.4,54.7,57.8,53.5 M57.6,56.3c0.8,1.2,1,1.4,0.9,2.5c0,0,0.4-1.6,1.4-1.9
	c1.1-0.3,1.7-0.9,1.9-1.5c0.2-0.7,0.5-1.4,0.4-1.6c-0.1-0.2-2.6,0-3.1,1.4c0,0,0-0.2-0.3-1.1c-0.2-0.7-1.2-1.3-1.2-1.3
	S56.8,55.1,57.6,56.3"/>
<path class="st14" d="M57.3,56.2c0.5,0.2,0.8,1.5,1,2.5c1-1.4,2.4-1.5,2.8-1.6c0,0-0.4,1.8-1.2,2c-0.8,0.2-1.7,0.5-1.9,1
	c-0.2-0.7-0.5-1.1-0.7-1.5C57,58.1,56.8,57.3,57.3,56.2"/>
<path class="st15" d="M60.8,57.2c0,0-1.5,0.1-2.3,1c-0.9,0.9,1.2-0.1,1.5-0.4C60.2,57.6,60.8,57.2,60.8,57.2"/>
<path class="st15" d="M57.3,56c0,0-0.8,1.6,0,2.5C58.3,59.4,57.3,56,57.3,56"/>
<path class="st1" d="M57.3,56.2c0.5,0.2,0.8,1.5,1,2.5c1-1.4,2.4-1.5,2.8-1.6c0,0-0.4,1.8-1.2,2c-0.8,0.2-1.7,0.5-1.9,1
	c-0.2-0.7-0.5-1.1-0.7-1.5C57,58.1,56.8,57.3,57.3,56.2 M56.9,59c0.7,1.3,0.9,1.5,0.7,2.6c0,0,0.5-1.6,1.5-1.8
	c1.2-0.2,1.8-0.7,2-1.4c0.3-0.7,0.6-1.4,0.6-1.6c-0.1-0.2-2.6-0.1-3.3,1.2c0,0,0-0.2-0.2-1.2c-0.2-0.7-1.1-1.4-1.1-1.4
	S56.1,57.7,56.9,59"/>
<path class="st14" d="M56.7,58.3c0.5,0.3,0.6,1.5,0.7,2.6c1.1-1.3,2.5-1.3,2.9-1.3c0,0-0.6,1.7-1.4,1.9c-0.8,0.2-1.8,0.3-2,0.8
	c-0.1-0.7-0.3-1.2-0.5-1.6C56.2,60.3,56.1,59.4,56.7,58.3"/>
<path class="st15" d="M60.1,59.7c0,0-1.5,0-2.4,0.8c-1,0.8,1.2,0,1.5-0.3C59.4,60,60.1,59.7,60.1,59.7"/>
<path class="st15" d="M56.8,58.2c0,0-1,1.6-0.2,2.5C57.4,61.7,56.8,58.2,56.8,58.2"/>
<path class="st1" d="M56.7,58.3c0.5,0.3,0.6,1.5,0.7,2.6c1.1-1.3,2.5-1.3,2.9-1.3c0,0-0.6,1.7-1.4,1.9c-0.8,0.2-1.8,0.3-2,0.8
	c-0.1-0.7-0.3-1.2-0.5-1.6C56.2,60.3,56.1,59.4,56.7,58.3 M56,61.1c0.6,1.4,0.7,1.6,0.4,2.7c0,0,0.6-1.6,1.7-1.7
	c1.2-0.1,1.9-0.6,2.2-1.2c0.3-0.7,0.7-1.3,0.7-1.6c-0.1-0.2-2.6-0.4-3.4,0.9c0,0,0-0.2-0.1-1.2c-0.1-0.7-0.9-1.5-0.9-1.5
	S55.4,59.7,56,61.1"/>
<path class="st14" d="M55.7,60.8c0.5,0.3,0.4,1.6,0.4,2.6c1.3-1.2,2.7-1,3.1-0.9c0,0-0.8,1.7-1.7,1.7c-0.9,0.1-1.8,0.1-2.1,0.6
	c0-0.7-0.2-1.2-0.3-1.7C54.9,62.7,54.9,61.8,55.7,60.8"/>
<path class="st15" d="M58.9,62.6c0,0-1.5-0.2-2.5,0.5c-1.1,0.7,1.2,0.2,1.6-0.1C58.2,62.9,58.9,62.6,58.9,62.6"/>
<path class="st15" d="M55.7,60.7c0,0-1.2,1.4-0.5,2.5C55.9,64.2,55.7,60.7,55.7,60.7"/>
<path class="st1" d="M55.7,60.8c0.5,0.3,0.4,1.6,0.4,2.6c1.3-1.2,2.7-1,3.1-0.9c0,0-0.8,1.7-1.7,1.7c-0.9,0.1-1.8,0.1-2.1,0.6
	c0-0.7-0.2-1.2-0.3-1.7C54.9,62.7,54.9,61.8,55.7,60.8 M54.6,63.5c0.4,1.5,0.5,1.6,0.1,2.7c0,0,0.8-1.5,1.9-1.5
	c1.2,0,1.9-0.3,2.3-0.9c0.4-0.6,0.9-1.2,0.9-1.5c0-0.2-2.6-0.7-3.5,0.5c0,0,0.1-0.2,0.1-1.2c0-0.7-0.8-1.6-0.8-1.6
	S54.2,62.1,54.6,63.5"/>
<path class="st14" d="M54.5,63c0.4,0.4,0.2,1.7,0,2.7c1.4-1,2.8-0.6,3.2-0.5c0,0-1.1,1.5-1.9,1.5c-0.9-0.1-1.8-0.2-2.2,0.3
	c0.1-0.7,0-1.2-0.1-1.7C53.5,64.8,53.6,63.9,54.5,63"/>
<path class="st15" d="M57.4,65.3c0,0-1.4-0.4-2.6,0.1c-1.2,0.5,1.1,0.3,1.6,0.1C56.7,65.5,57.4,65.3,57.4,65.3"/>
<path class="st15" d="M54.6,62.9c0,0-1.4,1.2-0.9,2.4C54.2,66.5,54.6,62.9,54.6,62.9"/>
<path class="st1" d="M54.5,63c0.4,0.4,0.2,1.7,0,2.7c1.4-1,2.8-0.6,3.2-0.5c0,0-1.1,1.5-1.9,1.5c-0.9-0.1-1.8-0.2-2.2,0.3
	c0.1-0.7,0-1.2-0.1-1.7C53.5,64.8,53.6,63.9,54.5,63 M53,65.6c0.2,1.5,0.3,1.7-0.3,2.7c0,0,1.1-1.4,2.1-1.2c1.2,0.2,2,0,2.4-0.5
	c0.5-0.6,1.1-1.1,1.1-1.3c0-0.2-2.4-1.1-3.5-0.1c0,0,0.1-0.2,0.2-1.2c0.1-0.7-0.5-1.7-0.5-1.7S52.8,64.1,53,65.6"/>
<path class="st14" d="M53,65.4c0.4,0.5,0,1.7-0.2,2.7c1.5-0.9,2.9-0.3,3.3-0.2c0,0-1.2,1.5-2.1,1.3c-0.8-0.1-1.8-0.4-2.2,0.1
	c0.2-0.7,0.1-1.3,0.1-1.7C51.8,67.1,52,66.2,53,65.4"/>
<path class="st15" d="M55.7,68c0,0-1.4-0.6-2.6-0.1c-1.2,0.4,1.1,0.4,1.6,0.3C55,68.1,55.7,68,55.7,68"/>
<path class="st15" d="M53.1,65.3c0,0-1.5,1.1-1.1,2.3C52.4,68.9,53.1,65.3,53.1,65.3"/>
<path class="st1" d="M53,65.4c0.4,0.5,0,1.7-0.2,2.7c1.5-0.9,2.9-0.3,3.3-0.2c0,0-1.2,1.5-2.1,1.3c-0.9-0.2-1.8-0.4-2.2,0.1
	c0.2-0.7,0.1-1.3,0.1-1.7C51.8,67.1,52,66.2,53,65.4 M51.3,67.8c0.1,1.5,0.1,1.8-0.6,2.7c0,0,1.2-1.3,2.2-1c1.2,0.3,2,0.1,2.5-0.3
	c0.6-0.5,1.2-1,1.3-1.2c0-0.2-2.3-1.3-3.5-0.4c0,0,0.1-0.2,0.3-1.2c0.2-0.7-0.4-1.8-0.4-1.8S51.2,66.3,51.3,67.8"/>
<path class="st14" d="M51,67.7c0.3,0.5-0.2,1.7-0.5,2.7c1.6-0.7,2.9,0,3.3,0.2c0,0-1.3,1.3-2.2,1.1c-0.8-0.2-1.8-0.5-2.2-0.2
	c0.2-0.7,0.2-1.2,0.3-1.7C49.7,69.3,50,68.4,51,67.7"/>
<path class="st15" d="M53.5,70.6c0,0-1.3-0.7-2.6-0.4c-1.2,0.3,1.1,0.6,1.5,0.4C52.7,70.5,53.5,70.6,53.5,70.6"/>
<path class="st15" d="M51.1,67.6c0,0-1.6,1-1.4,2.2C50.1,71,51.1,67.6,51.1,67.6"/>
<path class="st1" d="M51,67.7c0.3,0.5-0.2,1.7-0.5,2.7c1.6-0.7,2.9,0,3.3,0.2c0,0-1.3,1.3-2.2,1.1c-0.8-0.2-1.8-0.5-2.2-0.2
	c0.2-0.7,0.2-1.2,0.3-1.7C49.7,69.3,50,68.4,51,67.7 M49.1,69.9c-0.1,1.5-0.1,1.8-0.8,2.6c0,0,1.3-1.1,2.3-0.7
	c1.1,0.5,1.9,0.4,2.5-0.1c0.6-0.5,1.3-0.9,1.4-1.1c0-0.2-2.2-1.6-3.5-0.8c0,0,0.1-0.2,0.5-1.1c0.2-0.7-0.2-1.8-0.2-1.8
	S49.2,68.4,49.1,69.9"/>
<path class="st14" d="M48.9,69.6c0.2,0.5-0.5,1.6-1,2.5c1.7-0.4,2.9,0.6,3.2,0.8c0,0-1.6,1-2.4,0.6c-0.8-0.4-1.6-0.9-2.2-0.6
	c0.4-0.7,0.5-1.2,0.6-1.7C47.3,70.8,47.7,70,48.9,69.6"/>
<path class="st15" d="M50.8,72.9c0,0-1.2-1-2.5-0.9c-1.3,0,1,0.8,1.4,0.7C50.1,72.7,50.8,72.9,50.8,72.9"/>
<path class="st15" d="M49.1,69.5c0,0-1.8,0.6-1.8,1.9C47.3,72.7,49.1,69.5,49.1,69.5"/>
<path class="st1" d="M48.9,69.6c0.2,0.5-0.5,1.6-1,2.5c1.7-0.4,2.9,0.6,3.2,0.8c0,0-1.6,1-2.4,0.6c-0.8-0.4-1.6-0.9-2.2-0.6
	c0.4-0.7,0.5-1.2,0.6-1.7C47.3,70.8,47.7,70,48.9,69.6 M46.6,71.4c-0.4,1.5-0.4,1.7-1.4,2.4c0,0,1.5-0.9,2.4-0.3
	c1,0.7,1.9,0.7,2.5,0.4c0.7-0.3,1.4-0.6,1.6-0.8c0-0.2-1.9-2-3.3-1.5c0,0,0.2-0.2,0.7-1c0.4-0.6,0.2-1.8,0.2-1.8S47,69.9,46.6,71.4"
	/>
<path class="st14" d="M46.3,71.3c0.1,0.6-0.8,1.6-1.5,2.3c1.8,0,2.8,1.1,3.1,1.4c0,0-1.8,0.7-2.5,0.2c-0.7-0.6-1.5-1.2-2-1
	c0.5-0.6,0.7-1.1,0.9-1.5C44.5,72.2,45.1,71.5,46.3,71.3"/>
<path class="st15" d="M47.6,74.9c0,0-1-1.2-2.3-1.4c-1.3-0.2,0.8,0.9,1.3,1C46.9,74.6,47.6,74.9,47.6,74.9"/>
<path class="st15" d="M46.5,71.2c0,0-1.9,0.3-2.1,1.6C44.2,74.1,46.5,71.2,46.5,71.2"/>
<path class="st1" d="M46.3,71.3c0.1,0.6-0.8,1.5-1.5,2.3c1.8,0,2.8,1.1,3.1,1.4c0,0-1.8,0.7-2.5,0.2c-0.7-0.6-1.5-1.2-2-1
	c0.5-0.6,0.7-1.1,0.9-1.5C44.5,72.2,45.1,71.5,46.3,71.3 M43.7,72.6c-0.7,1.4-0.7,1.7-1.8,2.2c0,0,1.7-0.6,2.5,0.2
	c0.9,0.9,1.7,1.1,2.4,0.9c0.7-0.2,1.6-0.3,1.7-0.5c0.1-0.2-1.5-2.3-3-2.1c0,0,0.2-0.2,0.9-0.9c0.5-0.5,0.5-1.8,0.5-1.8
	S44.3,71.2,43.7,72.6"/>
<path class="st1" d="M36.8,74.6c0,0,3.8,1.3,6.9,1.6l0.1,0.9c0,0-7.5-1.9-8.4-2.3C35.1,74.6,34.8,74.3,36.8,74.6"/>
<path class="st1" d="M42.7,74.3c0,0-4.2,1.5-7.3,1.8L35.3,77c0,0,7.4-2,8.4-2.3C43.9,74.6,44.6,74,42.7,74.3"/>
<path class="st4" d="M40.5,75.4c0,0,1.7,2.3,3.3,1.9c-0.4,1.2-1.4,1.9-2,1.6c-0.7-0.4-1.9-1.5-1.8-2.4
	C40.1,75.5,40.5,75.4,40.5,75.4"/>
<path class="st0" d="M43.4,78c-1.8-0.7-2.8-1.6-3.2-2.2c-0.1,0.1-0.1,0.3-0.1,0.5c0.5,0.7,1.4,1.5,2.8,2.3
	C43,78.5,43.2,78.3,43.4,78"/>
<path class="st4" d="M38.7,75.4c0,0-1.7,2.3-3.3,1.9c0.4,1.2,1.4,1.9,2,1.6c0.7-0.4,1.9-1.5,1.8-2.4C39,75.5,38.7,75.4,38.7,75.4"/>
<path class="st0" d="M35.7,78.1c1.8-0.7,2.8-1.6,3.2-2.2c0.1,0.1,0.1,0.3,0.1,0.5c-0.5,0.7-1.4,1.5-2.8,2.3
	C36.1,78.5,35.9,78.3,35.7,78.1"/>
<path class="st4" d="M39.6,73c-1.1,0-4,0.1-2.7,1.6c0.9,1.1,2.4,1.4,2.7,1.5c0.3-0.1,1.7-0.5,2.6-1.5C43.5,73.1,40.7,73,39.6,73"/>
<path class="st0" d="M39.5,73.4c-0.5,0-1.6,0.4-1,1.5c0.4,0.7,0.9,1,1,1h0c0.1-0.1,0.5-0.3,0.9-1C41.2,73.8,40.1,73.4,39.5,73.4"/>
<path class="st4" d="M39.5,74.8L39.5,74.8c-1,0-1.6,0.5-1.2,1c0.4,0.6,0.8,0.9,1.2,0.9h0h0c0.4,0,0.8-0.3,1.2-0.9
	C41,75.3,40.5,74.8,39.5,74.8"/>
<path class="st0" d="M39.5,75.2L39.5,75.2c-0.5,0-0.8,0.3-0.6,0.5c0.2,0.3,0.4,0.5,0.6,0.5c0.2,0,0.4-0.2,0.6-0.5
	C40.3,75.5,40,75.2,39.5,75.2"/>
<path class="st0" d="M38,73.4c-0.5,0.5-0.2,1.3,0.2,1.8C37.7,74.9,36,73.8,38,73.4"/>
<path class="st0" d="M41,73.4c0.5,0.5,0.2,1.3-0.2,1.8C41.2,74.9,42.9,73.8,41,73.4"/>
<path class="st1" d="M5.9,51.6c-0.1-0.3-0.3-0.9-0.3-1.5c0-0.8,0.2-1.4,0.7-2c0.6-0.6,1.7-1,3-1c2.9-0.1,4,1.5,4.1,3
	c0,0.5-0.1,0.9-0.2,1.2l-1-0.2c0.1-0.2,0.2-0.5,0.2-0.9c0-1-0.8-1.9-2.9-1.8c-2.1,0.1-2.7,0.9-2.7,1.7c0,0.2,0,0.3,0.1,0.4l2.1-0.1
	l0-0.8l1,0l0.1,1.9L5.9,51.6z"/>
<path class="st1" d="M10,54.8c-1.6,0.3-2.8,0.8-2.6,1.6c0.1,0.8,1.5,0.8,3,0.5c1.4-0.2,2.7-0.7,2.6-1.5C12.8,54.7,11.5,54.6,10,54.8
	 M10.6,58.2c-2.8,0.5-4.1-0.3-4.4-1.6C6,55,7.5,54,9.7,53.6c2.3-0.4,4,0.2,4.3,1.7C14.3,56.9,12.7,57.8,10.6,58.2"/>
<path class="st1" d="M12.1,61.3l0.1,0.3c0.2,0.6,0.8,0.9,1.5,0.7c0.6-0.2,1-0.6,0.7-1.3c-0.1-0.2-0.1-0.3-0.2-0.4L12.1,61.3z
	 M8.7,62.5c0,0.1,0,0.2,0.1,0.4c0.2,0.7,0.8,1.1,1.7,0.8c0.9-0.3,1.1-1,0.9-1.7l-0.1-0.3L8.7,62.5z M14.6,59.2
	c0.2,0.4,0.4,0.8,0.6,1.4c0.2,0.7,0.3,1.3,0.1,1.9c-0.2,0.5-0.6,0.8-1.1,0.9c-0.7,0.2-1.4,0.1-1.9-0.5l0,0c0,0.9-0.5,1.6-1.4,1.9
	C10.2,65,9.7,65,9.2,64.8c-0.6-0.3-1.1-0.9-1.4-1.9c-0.2-0.5-0.3-0.9-0.3-1.2L14.6,59.2z"/>
<rect x="9.8" y="66.4" transform="matrix(0.9038 -0.4279 0.4279 0.9038 -27.3523 12.2641)" class="st1" width="7.6" height="1.2"/>
<polygon class="st1" points="16.4,72.6 15.5,71.1 13.4,72.4 14.5,74.1 13.6,74.7 11.9,71.9 18.3,67.8 20,70.5 19.1,71.1 18.1,69.4 
	16.3,70.6 17.3,72.1 "/>
<path class="st1" d="M19.3,75.2l0.2,0.2c0.5,0.5,1.2,0.5,1.8,0c0.6-0.5,0.7-1.1,0.2-1.7c-0.1-0.1-0.2-0.2-0.3-0.3L19.3,75.2z
	 M21,72.1c0.4,0.2,0.7,0.6,1.1,1c0.5,0.6,0.9,1.2,0.9,1.8c0,0.6-0.3,1-0.8,1.5c-0.7,0.6-1.5,0.7-2.2,0.4l0,0c0.2,0.5,0,1.1-0.6,1.8
	c-0.6,0.7-1.1,1.4-1.2,1.7l-0.8-0.9c0.1-0.2,0.5-0.8,1.1-1.5c0.6-0.8,0.7-1.2,0.3-1.7l-0.2-0.2L16.2,78l-0.8-0.9L21,72.1z"/>
<path class="st1" d="M20.4,82.2l4.5-6.2l0.9,0.7L25,80.1c-0.2,0.7-0.5,1.7-0.7,2.5l0,0c0.5-0.8,1.2-1.8,2-2.9l1.3-1.7l0.9,0.6
	l-4.5,6.2L23,84.1l0.9-3.4c0.2-0.7,0.5-1.7,0.8-2.5l0,0c-0.5,0.7-1.1,1.6-2,2.9l-1.3,1.7L20.4,82.2z"/>
<path class="st1" d="M29.4,83.3c-0.6,1.5-0.8,2.8-0.1,3.1c0.7,0.3,1.5-0.9,2-2.3c0.5-1.3,0.8-2.7,0.1-3C30.8,80.8,30,81.8,29.4,83.3
	 M32.6,84.5c-1.1,2.7-2.4,3.4-3.7,2.9c-1.4-0.6-1.5-2.3-0.7-4.5c0.8-2.1,2.3-3.3,3.7-2.7C33.4,80.7,33.4,82.6,32.6,84.5"/>
<path class="st1" d="M39.3,85.4c0.1,0,0.2,0,0.3,0c0.8,0,1.2-0.6,1.2-1.4c0-0.7-0.3-1.3-1.1-1.3c-0.2,0-0.3,0-0.4,0.1L39.3,85.4z
	 M38,81.8c0.4-0.1,0.9-0.2,1.4-0.2c0.8,0,1.5,0.1,1.9,0.5c0.4,0.4,0.6,1,0.6,1.6c0,0.8-0.2,1.3-0.5,1.7c-0.4,0.5-1.2,0.8-1.8,0.8
	c-0.1,0-0.2,0-0.3,0l0.1,3l-1.2,0L38,81.8z"/>
<path class="st1" d="M45.4,84.5l0.3-0.1c0.7-0.2,1-0.9,0.8-1.6c-0.2-0.7-0.6-1.1-1.4-0.9c-0.2,0-0.3,0.1-0.4,0.2L45.4,84.5z
	 M43.4,81.6c0.4-0.2,0.9-0.4,1.4-0.5c0.8-0.2,1.4-0.3,2,0c0.5,0.3,0.8,0.7,1,1.3c0.2,0.9,0,1.6-0.6,2.2l0,0c0.6,0,1,0.5,1.4,1.3
	c0.4,0.9,0.8,1.6,1,1.8l-1.2,0.3c-0.1-0.2-0.5-0.9-0.9-1.7c-0.4-0.9-0.8-1.2-1.4-1l-0.3,0.1l0.8,3.1l-1.2,0.3L43.4,81.6z"/>
<path class="st1" d="M51.3,82.6c0.8,1.4,1.7,2.3,2.4,1.9c0.7-0.4,0.2-1.7-0.5-3c-0.7-1.2-1.6-2.3-2.3-1.9
	C50.1,80,50.5,81.3,51.3,82.6 M54.2,80.9c1.4,2.5,1.1,4-0.1,4.7c-1.3,0.8-2.8-0.3-3.9-2.3c-1.1-2-1.2-3.8,0.2-4.6
	C51.7,77.9,53.1,79.1,54.2,80.9"/>
<path class="st1" d="M59.5,81.5l-6.4-4.5l1-0.9l2.8,2.1c0.7,0.5,1.5,1.1,2.2,1.7l0,0c-0.6-0.8-1.1-1.6-1.6-2.4l-1.8-2.9l1-0.9
	l3.9,6.8L59.5,81.5z"/>
<rect x="60.3" y="70.7" transform="matrix(0.6275 -0.7786 0.7786 0.6275 -35.3578 75.2041)" class="st1" width="1.2" height="7.6"/>
<path class="st1" d="M66.2,73.9L59.6,70l0.6-1l3.5,0.5c0.7,0.1,1.8,0.3,2.5,0.5l0,0c-0.9-0.4-1.9-1-3.1-1.7l-1.9-1.1l0.5-0.9
	l6.6,3.9l-0.6,1l-3.5-0.5c-0.8-0.1-1.7-0.3-2.5-0.5l0,0c0.8,0.4,1.7,0.9,3.1,1.7l1.8,1.1L66.2,73.9z"/>
<path class="st1" d="M70.9,63.9c0,0.3,0,0.6-0.2,1.1c-0.6,1.6-2.3,2-4.5,1.2c-2.7-1.1-3.2-2.9-2.7-4.2c0.2-0.5,0.4-0.8,0.5-0.9
	l0.9,0.6c-0.2,0.1-0.3,0.3-0.4,0.6c-0.3,0.8,0.1,1.8,2,2.6c1.9,0.8,2.9,0.3,3.2-0.6c0.1-0.3,0.2-0.5,0.1-0.7L70.9,63.9z"/>
<rect x="67.6" y="56.1" transform="matrix(0.2607 -0.9654 0.9654 0.2607 -7.4324 110.1753)" class="st1" width="1.2" height="7.6"/>
<path class="st1" d="M70.2,54.5l-1.8,0.1c-0.5,0-1.2,0-1.8,0l0,0c0.5,0.2,1.2,0.4,1.7,0.5l1.7,0.6L70.2,54.5z M71,56l1.9,0.7
	l-0.2,1.2L65.4,55l0.2-1.4l7.8-0.4l-0.2,1.2l-2,0.1L71,56z"/>
<polygon class="st1" points="65.9,50.4 65.9,49.2 72.6,49.3 72.6,47.3 73.6,47.3 73.6,50.5 "/>
<path class="st1" d="M121.9,73.8c-3.8,0-7.4-0.6-10.7-1.9c-3.3-1.3-6.2-3-8.6-5.4c-2.4-2.3-4.3-5.1-5.7-8.2c-1.4-3.1-2-6.6-2-10.3
	c0-3.7,0.7-7.2,2-10.3c1.4-3.1,3.2-5.9,5.7-8.2c2.4-2.3,5.3-4.1,8.6-5.4c3.3-1.3,6.9-1.9,10.7-1.9c4.3,0,8.2,0.7,11.7,2.2
	c3.5,1.5,6.4,3.7,8.8,6.6l-7.4,6.8c-1.7-1.9-3.6-3.4-5.7-4.4c-2.1-1-4.4-1.5-6.8-1.5c-2.3,0-4.5,0.4-6.4,1.1
	c-1.9,0.8-3.6,1.9-5.1,3.3c-1.4,1.4-2.5,3.1-3.3,5.1c-0.8,1.9-1.2,4.1-1.2,6.5c0,2.4,0.4,4.5,1.2,6.5c0.8,1.9,1.9,3.6,3.3,5.1
	c1.4,1.4,3.1,2.5,5.1,3.3c1.9,0.8,4.1,1.1,6.4,1.1c2.5,0,4.7-0.5,6.8-1.5c2.1-1,4-2.5,5.7-4.4l7.4,6.8c-2.4,2.9-5.3,5.1-8.8,6.6
	C130.2,73,126.2,73.8,121.9,73.8"/>
<path class="st1" d="M171.8,63.9c2.2,0,4.3-0.4,6.2-1.1c1.9-0.8,3.5-1.9,4.9-3.3c1.4-1.4,2.5-3.1,3.3-5.1c0.8-1.9,1.2-4.1,1.2-6.5
	c0-2.4-0.4-4.5-1.2-6.5c-0.8-1.9-1.9-3.6-3.3-5.1c-1.4-1.4-3-2.5-4.9-3.3c-1.9-0.8-4-1.1-6.2-1.1c-2.2,0-4.3,0.4-6.2,1.1
	c-1.9,0.8-3.5,1.9-4.9,3.3s-2.5,3.1-3.3,5.1c-0.8,1.9-1.2,4.1-1.2,6.5c0,2.3,0.4,4.5,1.2,6.4c0.8,2,1.9,3.7,3.3,5.1
	c1.4,1.4,3,2.5,4.9,3.3C167.5,63.6,169.6,63.9,171.8,63.9 M171.9,73.8c-3.9,0-7.6-0.6-10.9-1.9c-3.3-1.3-6.2-3.1-8.7-5.4
	c-2.4-2.3-4.3-5.1-5.7-8.2c-1.4-3.1-2-6.5-2-10.2s0.7-7.1,2-10.2c1.4-3.1,3.3-5.9,5.7-8.2c2.5-2.3,5.4-4.1,8.7-5.4
	c3.3-1.3,6.9-1.9,10.8-1.9c3.9,0,7.6,0.6,10.8,1.9c3.3,1.3,6.2,3.1,8.6,5.4c2.4,2.3,4.4,5,5.7,8.1c1.4,3.1,2.1,6.5,2.1,10.3
	c0,3.7-0.7,7.1-2.1,10.3c-1.4,3.2-3.3,5.9-5.7,8.2c-2.4,2.3-5.3,4.1-8.6,5.4C179.4,73.1,175.8,73.8,171.9,73.8"/>
<path class="st1" d="M250.4,72.9l-11.1-16c0,0,0.1,0,0.1,0c3.2-1.4,5.7-3.5,7.5-6.2c1.8-2.7,2.6-5.9,2.6-9.6c0-3.7-0.9-7-2.6-9.7
	c-1.8-2.7-4.2-4.8-7.5-6.2c-3.2-1.4-7.1-2.2-11.5-2.2h-21.6v49.8h11.5V59h10c0.2,0,0.4,0,0.5,0l9.6,13.9H250.4z M235.2,34.8
	c1.8,1.5,2.6,3.7,2.6,6.4c0,2.7-0.9,4.8-2.6,6.4c-1.8,1.5-4.4,2.3-8,2.3h-9.4V32.5h9.4C230.8,32.5,233.4,33.3,235.2,34.8z"/>
<path class="st1" d="M301.3,72.9l-11.1-16c0,0,0.1,0,0.1,0c3.2-1.4,5.7-3.5,7.5-6.2c1.8-2.7,2.6-5.9,2.6-9.6c0-3.7-0.9-7-2.6-9.7
	c-1.8-2.7-4.2-4.8-7.5-6.2c-3.2-1.4-7.1-2.2-11.5-2.2h-21.6v49.8h11.5V59h10c0.2,0,0.4,0,0.5,0l9.6,13.9H301.3z M286.1,34.8
	c1.8,1.5,2.6,3.7,2.6,6.4c0,2.7-0.9,4.8-2.6,6.4c-1.8,1.5-4.4,2.3-8,2.3h-9.4V32.5h9.4C281.7,32.5,284.3,33.3,286.1,34.8z"/>
<rect x="308" y="23.1" class="st1" width="11.5" height="49.8"/>
<polygon class="st1" points="341.4,63.7 341.4,52.1 364.5,52.1 364.5,43.2 341.4,43.2 341.4,32.4 367.6,32.4 367.6,23.1 330,23.1 
	330,72.9 368.5,72.9 368.5,63.7 "/>
<polygon class="st1" points="410.6,23.1 410.6,53.3 385.8,23.1 376.3,23.1 376.3,72.9 387.7,72.9 387.7,42.7 412.5,72.9 421.9,72.9 
	421.9,23.1 "/>
<polygon class="st1" points="442.6,72.9 442.6,32.5 426.7,32.5 426.7,23.1 470.1,23.1 470.1,32.5 454.2,32.5 454.2,72.9 "/>
<polygon class="st1" points="486.3,63.7 486.3,52.1 509.4,52.1 509.4,43.2 486.3,43.2 486.3,32.4 512.5,32.4 512.5,23.1 474.9,23.1 
	474.9,72.9 513.4,72.9 513.4,63.7 "/>
<path class="st1" d="M537.5,73.8c-4,0-7.8-0.5-11.5-1.6c-3.7-1.1-6.6-2.5-8.8-4.2l3.9-8.7c2.1,1.5,4.7,2.8,7.6,3.7
	c2.9,1,5.9,1.5,8.9,1.5c2.3,0,4.1-0.2,5.5-0.7c1.4-0.5,2.4-1.1,3.1-1.9c0.7-0.8,1-1.7,1-2.8c0-1.3-0.5-2.4-1.6-3.2
	c-1-0.8-2.4-1.4-4.1-1.9c-1.7-0.5-3.6-1-5.7-1.4c-2.1-0.5-4.1-1-6.2-1.7c-2.1-0.7-3.9-1.5-5.7-2.6c-1.7-1-3.1-2.4-4.2-4.1
	c-1.1-1.7-1.6-3.9-1.6-6.5c0-2.8,0.8-5.4,2.3-7.8c1.5-2.3,3.9-4.2,7-5.6c3.1-1.4,7-2.1,11.7-2.1c3.1,0,6.2,0.4,9.2,1.1
	c3,0.7,5.7,1.8,8,3.3l-3.6,8.8c-2.3-1.3-4.6-2.3-7-3c-2.3-0.6-4.6-1-6.8-1c-2.2,0-4.1,0.3-5.5,0.8c-1.4,0.5-2.4,1.2-3.1,2
	c-0.6,0.8-0.9,1.8-0.9,2.9c0,1.3,0.5,2.3,1.6,3.1c1,0.8,2.4,1.4,4.1,1.9c1.7,0.5,3.6,0.9,5.7,1.4c2.1,0.5,4.1,1,6.2,1.6
	c2.1,0.6,3.9,1.4,5.7,2.5c1.7,1,3.1,2.4,4.2,4.1c1.1,1.7,1.6,3.9,1.6,6.5c0,2.8-0.8,5.4-2.3,7.7c-1.6,2.3-3.9,4.2-7,5.6
	C546.2,73.1,542.3,73.8,537.5,73.8"/>
</svg>
